<?xml version="1.0" encoding="UTF-8"?>
<svg xmlns="http://www.w3.org/2000/svg" xmlns:xlink="http://www.w3.org/1999/xlink" width="432pt" height="288pt" viewBox="0 0 432 288" version="1.1">
<defs>
<g>
<symbol overflow="visible" id="glyph0-0">
<path style="stroke:none;" d="M 0.4375 1.5625 L 0.4375 -6.203125 L 4.84375 -6.203125 L 4.84375 1.5625 Z M 0.9375 1.0625 L 4.34375 1.0625 L 4.34375 -5.703125 L 0.9375 -5.703125 Z M 0.9375 1.0625 "/>
</symbol>
<symbol overflow="visible" id="glyph0-1">
<path style="stroke:none;" d="M 4.828125 -2.90625 L 4.828125 0 L 4.03125 0 L 4.03125 -2.875 C 4.03125 -3.332031 3.941406 -3.671875 3.765625 -3.890625 C 3.585938 -4.117188 3.320312 -4.234375 2.96875 -4.234375 C 2.539062 -4.234375 2.203125 -4.097656 1.953125 -3.828125 C 1.710938 -3.554688 1.59375 -3.1875 1.59375 -2.71875 L 1.59375 0 L 0.796875 0 L 0.796875 -4.8125 L 1.59375 -4.8125 L 1.59375 -4.0625 C 1.78125 -4.351562 2 -4.566406 2.25 -4.703125 C 2.507812 -4.847656 2.8125 -4.921875 3.15625 -4.921875 C 3.707031 -4.921875 4.125 -4.75 4.40625 -4.40625 C 4.6875 -4.070312 4.828125 -3.570312 4.828125 -2.90625 Z M 4.828125 -2.90625 "/>
</symbol>
<symbol overflow="visible" id="glyph0-2">
<path style="stroke:none;" d="M 0.828125 -4.8125 L 1.625 -4.8125 L 1.625 0.078125 C 1.625 0.691406 1.503906 1.132812 1.265625 1.40625 C 1.035156 1.6875 0.660156 1.828125 0.140625 1.828125 L -0.15625 1.828125 L -0.15625 1.15625 L 0.046875 1.15625 C 0.347656 1.15625 0.550781 1.085938 0.65625 0.953125 C 0.769531 0.816406 0.828125 0.523438 0.828125 0.078125 Z M 0.828125 -6.6875 L 1.625 -6.6875 L 1.625 -5.6875 L 0.828125 -5.6875 Z M 0.828125 -6.6875 "/>
</symbol>
<symbol overflow="visible" id="glyph0-3">
<path style="stroke:none;" d="M 2.515625 -6.6875 L 4.71875 -6.6875 L 4.71875 0 L 3.921875 0 L 3.921875 -6.03125 L 2.515625 -6.03125 C 2.222656 -6.03125 2.019531 -5.972656 1.90625 -5.859375 C 1.800781 -5.742188 1.75 -5.535156 1.75 -5.234375 L 1.75 -4.8125 L 3.046875 -4.8125 L 3.046875 -4.203125 L 1.75 -4.203125 L 1.75 0 L 0.953125 0 L 0.953125 -4.203125 L 0.203125 -4.203125 L 0.203125 -4.8125 L 0.953125 -4.8125 L 0.953125 -5.140625 C 0.953125 -5.679688 1.078125 -6.070312 1.328125 -6.3125 C 1.578125 -6.5625 1.972656 -6.6875 2.515625 -6.6875 Z M 2.515625 -6.6875 "/>
</symbol>
<symbol overflow="visible" id="glyph0-4">
<path style="stroke:none;" d="M 0.859375 -6.40625 L 1.734375 -6.40625 L 1.734375 -0.453125 C 1.734375 0.328125 1.582031 0.890625 1.28125 1.234375 C 0.988281 1.585938 0.519531 1.765625 -0.125 1.765625 L -0.453125 1.765625 L -0.453125 1.03125 L -0.1875 1.03125 C 0.195312 1.03125 0.46875 0.921875 0.625 0.703125 C 0.78125 0.492188 0.859375 0.109375 0.859375 -0.453125 Z M 0.859375 -6.40625 "/>
</symbol>
<symbol overflow="visible" id="glyph0-5">
<path style="stroke:none;" d="M 0.75 -1.90625 L 0.75 -4.8125 L 1.53125 -4.8125 L 1.53125 -1.921875 C 1.53125 -1.472656 1.617188 -1.132812 1.796875 -0.90625 C 1.984375 -0.675781 2.253906 -0.5625 2.609375 -0.5625 C 3.035156 -0.5625 3.367188 -0.695312 3.609375 -0.96875 C 3.859375 -1.238281 3.984375 -1.609375 3.984375 -2.078125 L 3.984375 -4.8125 L 4.78125 -4.8125 L 4.78125 0 L 3.984375 0 L 3.984375 -0.734375 C 3.796875 -0.441406 3.570312 -0.222656 3.3125 -0.078125 C 3.0625 0.0546875 2.769531 0.125 2.4375 0.125 C 1.882812 0.125 1.460938 -0.046875 1.171875 -0.390625 C 0.890625 -0.734375 0.75 -1.238281 0.75 -1.90625 Z M 2.734375 -4.921875 Z M 2.734375 -4.921875 "/>
</symbol>
<symbol overflow="visible" id="glyph0-6">
<path style="stroke:none;" d="M 0.828125 -6.6875 L 1.625 -6.6875 L 1.625 0 L 0.828125 0 Z M 0.828125 -6.6875 "/>
</symbol>
<symbol overflow="visible" id="glyph0-7">
<path style="stroke:none;" d=""/>
</symbol>
<symbol overflow="visible" id="glyph0-8">
<path style="stroke:none;" d="M 1.6875 -0.734375 L 4.71875 -0.734375 L 4.71875 0 L 0.640625 0 L 0.640625 -0.734375 C 0.972656 -1.066406 1.421875 -1.519531 1.984375 -2.09375 C 2.554688 -2.675781 2.914062 -3.050781 3.0625 -3.21875 C 3.34375 -3.53125 3.535156 -3.789062 3.640625 -4 C 3.753906 -4.21875 3.8125 -4.429688 3.8125 -4.640625 C 3.8125 -4.984375 3.691406 -5.257812 3.453125 -5.46875 C 3.210938 -5.6875 2.898438 -5.796875 2.515625 -5.796875 C 2.242188 -5.796875 1.957031 -5.75 1.65625 -5.65625 C 1.351562 -5.5625 1.03125 -5.421875 0.6875 -5.234375 L 0.6875 -6.109375 C 1.039062 -6.242188 1.367188 -6.347656 1.671875 -6.421875 C 1.972656 -6.492188 2.25 -6.53125 2.5 -6.53125 C 3.164062 -6.53125 3.695312 -6.363281 4.09375 -6.03125 C 4.488281 -5.695312 4.6875 -5.253906 4.6875 -4.703125 C 4.6875 -4.429688 4.632812 -4.175781 4.53125 -3.9375 C 4.4375 -3.707031 4.257812 -3.429688 4 -3.109375 C 3.925781 -3.023438 3.695312 -2.785156 3.3125 -2.390625 C 2.925781 -1.992188 2.382812 -1.441406 1.6875 -0.734375 Z M 1.6875 -0.734375 "/>
</symbol>
<symbol overflow="visible" id="glyph0-9">
<path style="stroke:none;" d="M 2.796875 -5.84375 C 2.347656 -5.84375 2.007812 -5.617188 1.78125 -5.171875 C 1.5625 -4.734375 1.453125 -4.078125 1.453125 -3.203125 C 1.453125 -2.316406 1.5625 -1.65625 1.78125 -1.21875 C 2.007812 -0.78125 2.347656 -0.5625 2.796875 -0.5625 C 3.242188 -0.5625 3.578125 -0.78125 3.796875 -1.21875 C 4.023438 -1.65625 4.140625 -2.316406 4.140625 -3.203125 C 4.140625 -4.078125 4.023438 -4.734375 3.796875 -5.171875 C 3.578125 -5.617188 3.242188 -5.84375 2.796875 -5.84375 Z M 2.796875 -6.53125 C 3.515625 -6.53125 4.0625 -6.242188 4.4375 -5.671875 C 4.820312 -5.109375 5.015625 -4.285156 5.015625 -3.203125 C 5.015625 -2.117188 4.820312 -1.289062 4.4375 -0.71875 C 4.0625 -0.15625 3.515625 0.125 2.796875 0.125 C 2.078125 0.125 1.523438 -0.15625 1.140625 -0.71875 C 0.765625 -1.289062 0.578125 -2.117188 0.578125 -3.203125 C 0.578125 -4.285156 0.765625 -5.109375 1.140625 -5.671875 C 1.523438 -6.242188 2.078125 -6.53125 2.796875 -6.53125 Z M 2.796875 -6.53125 "/>
</symbol>
<symbol overflow="visible" id="glyph0-10">
<path style="stroke:none;" d="M 3.46875 -5.828125 C 2.832031 -5.828125 2.328125 -5.59375 1.953125 -5.125 C 1.585938 -4.65625 1.40625 -4.015625 1.40625 -3.203125 C 1.40625 -2.390625 1.585938 -1.75 1.953125 -1.28125 C 2.328125 -0.8125 2.832031 -0.578125 3.46875 -0.578125 C 4.09375 -0.578125 4.585938 -0.8125 4.953125 -1.28125 C 5.328125 -1.75 5.515625 -2.390625 5.515625 -3.203125 C 5.515625 -4.015625 5.328125 -4.65625 4.953125 -5.125 C 4.585938 -5.59375 4.09375 -5.828125 3.46875 -5.828125 Z M 3.46875 -6.53125 C 4.363281 -6.53125 5.082031 -6.226562 5.625 -5.625 C 6.164062 -5.019531 6.4375 -4.210938 6.4375 -3.203125 C 6.4375 -2.191406 6.164062 -1.382812 5.625 -0.78125 C 5.082031 -0.175781 4.363281 0.125 3.46875 0.125 C 2.5625 0.125 1.835938 -0.171875 1.296875 -0.765625 C 0.765625 -1.367188 0.5 -2.179688 0.5 -3.203125 C 0.5 -4.210938 0.765625 -5.019531 1.296875 -5.625 C 1.835938 -6.226562 2.5625 -6.53125 3.46875 -6.53125 Z M 3.46875 -6.53125 "/>
</symbol>
<symbol overflow="visible" id="glyph0-11">
<path style="stroke:none;" d="M 4.296875 -4.625 L 4.296875 -3.890625 C 4.066406 -4.015625 3.835938 -4.101562 3.609375 -4.15625 C 3.390625 -4.21875 3.164062 -4.25 2.9375 -4.25 C 2.425781 -4.25 2.023438 -4.085938 1.734375 -3.765625 C 1.453125 -3.441406 1.3125 -2.988281 1.3125 -2.40625 C 1.3125 -1.8125 1.453125 -1.351562 1.734375 -1.03125 C 2.023438 -0.707031 2.425781 -0.546875 2.9375 -0.546875 C 3.164062 -0.546875 3.390625 -0.578125 3.609375 -0.640625 C 3.835938 -0.703125 4.066406 -0.796875 4.296875 -0.921875 L 4.296875 -0.1875 C 4.066406 -0.0820312 3.832031 -0.00390625 3.59375 0.046875 C 3.363281 0.0976562 3.117188 0.125 2.859375 0.125 C 2.128906 0.125 1.550781 -0.0976562 1.125 -0.546875 C 0.695312 -1.003906 0.484375 -1.625 0.484375 -2.40625 C 0.484375 -3.1875 0.695312 -3.800781 1.125 -4.25 C 1.5625 -4.695312 2.15625 -4.921875 2.90625 -4.921875 C 3.144531 -4.921875 3.378906 -4.894531 3.609375 -4.84375 C 3.847656 -4.800781 4.078125 -4.726562 4.296875 -4.625 Z M 4.296875 -4.625 "/>
</symbol>
<symbol overflow="visible" id="glyph0-12">
<path style="stroke:none;" d="M 1.609375 -6.171875 L 1.609375 -4.8125 L 3.234375 -4.8125 L 3.234375 -4.203125 L 1.609375 -4.203125 L 1.609375 -1.578125 C 1.609375 -1.191406 1.660156 -0.941406 1.765625 -0.828125 C 1.878906 -0.710938 2.097656 -0.65625 2.421875 -0.65625 L 3.234375 -0.65625 L 3.234375 0 L 2.421875 0 C 1.816406 0 1.394531 -0.113281 1.15625 -0.34375 C 0.925781 -0.570312 0.8125 -0.984375 0.8125 -1.578125 L 0.8125 -4.203125 L 0.234375 -4.203125 L 0.234375 -4.8125 L 0.8125 -4.8125 L 0.8125 -6.171875 Z M 1.609375 -6.171875 "/>
</symbol>
<symbol overflow="visible" id="glyph0-13">
<path style="stroke:none;" d="M 3.015625 -2.421875 C 2.378906 -2.421875 1.9375 -2.347656 1.6875 -2.203125 C 1.4375 -2.054688 1.3125 -1.804688 1.3125 -1.453125 C 1.3125 -1.171875 1.40625 -0.945312 1.59375 -0.78125 C 1.78125 -0.613281 2.03125 -0.53125 2.34375 -0.53125 C 2.78125 -0.53125 3.128906 -0.6875 3.390625 -1 C 3.660156 -1.3125 3.796875 -1.722656 3.796875 -2.234375 L 3.796875 -2.421875 Z M 4.59375 -2.75 L 4.59375 0 L 3.796875 0 L 3.796875 -0.734375 C 3.617188 -0.441406 3.394531 -0.222656 3.125 -0.078125 C 2.851562 0.0546875 2.523438 0.125 2.140625 0.125 C 1.648438 0.125 1.257812 -0.0078125 0.96875 -0.28125 C 0.675781 -0.5625 0.53125 -0.9375 0.53125 -1.40625 C 0.53125 -1.945312 0.707031 -2.351562 1.0625 -2.625 C 1.425781 -2.894531 1.96875 -3.03125 2.6875 -3.03125 L 3.796875 -3.03125 L 3.796875 -3.109375 C 3.796875 -3.472656 3.675781 -3.753906 3.4375 -3.953125 C 3.195312 -4.148438 2.863281 -4.25 2.4375 -4.25 C 2.15625 -4.25 1.882812 -4.21875 1.625 -4.15625 C 1.363281 -4.09375 1.113281 -3.992188 0.875 -3.859375 L 0.875 -4.59375 C 1.164062 -4.707031 1.445312 -4.789062 1.71875 -4.84375 C 1.988281 -4.894531 2.253906 -4.921875 2.515625 -4.921875 C 3.210938 -4.921875 3.734375 -4.738281 4.078125 -4.375 C 4.421875 -4.019531 4.59375 -3.476562 4.59375 -2.75 Z M 4.59375 -2.75 "/>
</symbol>
<symbol overflow="visible" id="glyph0-14">
<path style="stroke:none;" d="M 1.09375 -0.734375 L 2.515625 -0.734375 L 2.515625 -5.625 L 0.96875 -5.3125 L 0.96875 -6.109375 L 2.5 -6.40625 L 3.375 -6.40625 L 3.375 -0.734375 L 4.78125 -0.734375 L 4.78125 0 L 1.09375 0 Z M 1.09375 -0.734375 "/>
</symbol>
<symbol overflow="visible" id="glyph0-15">
<path style="stroke:none;" d="M 3 -5.5625 L 1.828125 -2.359375 L 4.1875 -2.359375 Z M 2.515625 -6.40625 L 3.5 -6.40625 L 5.9375 0 L 5.046875 0 L 4.453125 -1.640625 L 1.5625 -1.640625 L 0.984375 0 L 0.0625 0 Z M 2.515625 -6.40625 "/>
</symbol>
<symbol overflow="visible" id="glyph0-16">
<path style="stroke:none;" d="M 1.59375 -0.71875 L 1.59375 1.828125 L 0.796875 1.828125 L 0.796875 -4.8125 L 1.59375 -4.8125 L 1.59375 -4.078125 C 1.757812 -4.367188 1.96875 -4.582031 2.21875 -4.71875 C 2.476562 -4.851562 2.78125 -4.921875 3.125 -4.921875 C 3.707031 -4.921875 4.179688 -4.6875 4.546875 -4.21875 C 4.921875 -3.757812 5.109375 -3.15625 5.109375 -2.40625 C 5.109375 -1.644531 4.921875 -1.03125 4.546875 -0.5625 C 4.179688 -0.101562 3.707031 0.125 3.125 0.125 C 2.78125 0.125 2.476562 0.0546875 2.21875 -0.078125 C 1.96875 -0.222656 1.757812 -0.4375 1.59375 -0.71875 Z M 4.28125 -2.40625 C 4.28125 -2.976562 4.160156 -3.429688 3.921875 -3.765625 C 3.679688 -4.097656 3.351562 -4.265625 2.9375 -4.265625 C 2.519531 -4.265625 2.191406 -4.097656 1.953125 -3.765625 C 1.710938 -3.429688 1.59375 -2.976562 1.59375 -2.40625 C 1.59375 -1.820312 1.710938 -1.363281 1.953125 -1.03125 C 2.191406 -0.695312 2.519531 -0.53125 2.9375 -0.53125 C 3.351562 -0.53125 3.679688 -0.695312 3.921875 -1.03125 C 4.160156 -1.363281 4.28125 -1.820312 4.28125 -2.40625 Z M 4.28125 -2.40625 "/>
</symbol>
<symbol overflow="visible" id="glyph0-17">
<path style="stroke:none;" d="M 3.609375 -4.078125 C 3.523438 -4.128906 3.429688 -4.164062 3.328125 -4.1875 C 3.222656 -4.207031 3.109375 -4.21875 2.984375 -4.21875 C 2.535156 -4.21875 2.191406 -4.070312 1.953125 -3.78125 C 1.710938 -3.488281 1.59375 -3.070312 1.59375 -2.53125 L 1.59375 0 L 0.796875 0 L 0.796875 -4.8125 L 1.59375 -4.8125 L 1.59375 -4.0625 C 1.757812 -4.351562 1.972656 -4.566406 2.234375 -4.703125 C 2.503906 -4.847656 2.832031 -4.921875 3.21875 -4.921875 C 3.269531 -4.921875 3.328125 -4.914062 3.390625 -4.90625 C 3.453125 -4.90625 3.523438 -4.898438 3.609375 -4.890625 Z M 3.609375 -4.078125 "/>
</symbol>
<symbol overflow="visible" id="glyph0-18">
<path style="stroke:none;" d="M 3.5625 -3.453125 C 3.976562 -3.367188 4.300781 -3.1875 4.53125 -2.90625 C 4.769531 -2.625 4.890625 -2.273438 4.890625 -1.859375 C 4.890625 -1.234375 4.671875 -0.742188 4.234375 -0.390625 C 3.804688 -0.046875 3.191406 0.125 2.390625 0.125 C 2.117188 0.125 1.835938 0.0976562 1.546875 0.046875 C 1.265625 -0.00390625 0.972656 -0.0820312 0.671875 -0.1875 L 0.671875 -1.03125 C 0.910156 -0.894531 1.171875 -0.789062 1.453125 -0.71875 C 1.742188 -0.644531 2.046875 -0.609375 2.359375 -0.609375 C 2.898438 -0.609375 3.3125 -0.710938 3.59375 -0.921875 C 3.882812 -1.140625 4.03125 -1.453125 4.03125 -1.859375 C 4.03125 -2.242188 3.894531 -2.539062 3.625 -2.75 C 3.363281 -2.96875 3 -3.078125 2.53125 -3.078125 L 1.78125 -3.078125 L 1.78125 -3.78125 L 2.5625 -3.78125 C 2.988281 -3.78125 3.3125 -3.863281 3.53125 -4.03125 C 3.757812 -4.207031 3.875 -4.457031 3.875 -4.78125 C 3.875 -5.101562 3.753906 -5.351562 3.515625 -5.53125 C 3.285156 -5.707031 2.957031 -5.796875 2.53125 -5.796875 C 2.289062 -5.796875 2.035156 -5.769531 1.765625 -5.71875 C 1.492188 -5.664062 1.191406 -5.585938 0.859375 -5.484375 L 0.859375 -6.25 C 1.191406 -6.34375 1.5 -6.410156 1.78125 -6.453125 C 2.070312 -6.503906 2.347656 -6.53125 2.609375 -6.53125 C 3.265625 -6.53125 3.78125 -6.378906 4.15625 -6.078125 C 4.539062 -5.773438 4.734375 -5.367188 4.734375 -4.859375 C 4.734375 -4.503906 4.628906 -4.203125 4.421875 -3.953125 C 4.222656 -3.710938 3.9375 -3.546875 3.5625 -3.453125 Z M 3.5625 -3.453125 "/>
</symbol>
<symbol overflow="visible" id="glyph0-19">
<path style="stroke:none;" d="M 0.421875 -2.765625 L 2.75 -2.765625 L 2.75 -2.0625 L 0.421875 -2.0625 Z M 0.421875 -2.765625 "/>
</symbol>
<symbol overflow="visible" id="glyph0-20">
<path style="stroke:none;" d="M 0.953125 -6.40625 L 4.359375 -6.40625 L 4.359375 -5.6875 L 1.75 -5.6875 L 1.75 -4.109375 C 1.875 -4.148438 2 -4.179688 2.125 -4.203125 C 2.25 -4.222656 2.375 -4.234375 2.5 -4.234375 C 3.21875 -4.234375 3.785156 -4.035156 4.203125 -3.640625 C 4.617188 -3.253906 4.828125 -2.726562 4.828125 -2.0625 C 4.828125 -1.363281 4.613281 -0.820312 4.1875 -0.4375 C 3.757812 -0.0625 3.148438 0.125 2.359375 0.125 C 2.097656 0.125 1.828125 0.0976562 1.546875 0.046875 C 1.265625 0.00390625 0.972656 -0.0625 0.671875 -0.15625 L 0.671875 -1.015625 C 0.929688 -0.878906 1.195312 -0.773438 1.46875 -0.703125 C 1.75 -0.640625 2.039062 -0.609375 2.34375 -0.609375 C 2.84375 -0.609375 3.234375 -0.738281 3.515625 -1 C 3.804688 -1.257812 3.953125 -1.613281 3.953125 -2.0625 C 3.953125 -2.507812 3.804688 -2.863281 3.515625 -3.125 C 3.234375 -3.382812 2.84375 -3.515625 2.34375 -3.515625 C 2.113281 -3.515625 1.882812 -3.488281 1.65625 -3.4375 C 1.425781 -3.382812 1.191406 -3.300781 0.953125 -3.1875 Z M 0.953125 -6.40625 "/>
</symbol>
<symbol overflow="visible" id="glyph1-0">
<path style="stroke:none;" d="M 0.546875 1.9375 L 0.546875 -7.75 L 6.046875 -7.75 L 6.046875 1.9375 Z M 1.171875 1.328125 L 5.4375 1.328125 L 5.4375 -7.140625 L 1.171875 -7.140625 Z M 1.171875 1.328125 "/>
</symbol>
<symbol overflow="visible" id="glyph1-1">
<path style="stroke:none;" d="M 2.171875 -7.125 L 2.171875 -0.890625 L 3.46875 -0.890625 C 4.582031 -0.890625 5.394531 -1.140625 5.90625 -1.640625 C 6.414062 -2.140625 6.671875 -2.929688 6.671875 -4.015625 C 6.671875 -5.085938 6.414062 -5.875 5.90625 -6.375 C 5.394531 -6.875 4.582031 -7.125 3.46875 -7.125 Z M 1.078125 -8.015625 L 3.3125 -8.015625 C 4.863281 -8.015625 6.003906 -7.691406 6.734375 -7.046875 C 7.460938 -6.398438 7.828125 -5.390625 7.828125 -4.015625 C 7.828125 -2.628906 7.457031 -1.613281 6.71875 -0.96875 C 5.988281 -0.320312 4.851562 0 3.3125 0 L 1.078125 0 Z M 1.078125 -8.015625 "/>
</symbol>
<symbol overflow="visible" id="glyph1-2">
<path style="stroke:none;" d="M 3.765625 -3.03125 C 2.972656 -3.03125 2.421875 -2.9375 2.109375 -2.75 C 1.804688 -2.5625 1.65625 -2.25 1.65625 -1.8125 C 1.65625 -1.46875 1.769531 -1.191406 2 -0.984375 C 2.226562 -0.773438 2.539062 -0.671875 2.9375 -0.671875 C 3.488281 -0.671875 3.925781 -0.863281 4.25 -1.25 C 4.582031 -1.644531 4.75 -2.160156 4.75 -2.796875 L 4.75 -3.03125 Z M 5.734375 -3.4375 L 5.734375 0 L 4.75 0 L 4.75 -0.90625 C 4.53125 -0.539062 4.25 -0.269531 3.90625 -0.09375 C 3.570312 0.0703125 3.160156 0.15625 2.671875 0.15625 C 2.054688 0.15625 1.566406 -0.015625 1.203125 -0.359375 C 0.835938 -0.703125 0.65625 -1.164062 0.65625 -1.75 C 0.65625 -2.425781 0.878906 -2.9375 1.328125 -3.28125 C 1.785156 -3.625 2.46875 -3.796875 3.375 -3.796875 L 4.75 -3.796875 L 4.75 -3.890625 C 4.75 -4.347656 4.597656 -4.703125 4.296875 -4.953125 C 4.003906 -5.203125 3.585938 -5.328125 3.046875 -5.328125 C 2.703125 -5.328125 2.363281 -5.285156 2.03125 -5.203125 C 1.707031 -5.117188 1.394531 -4.992188 1.09375 -4.828125 L 1.09375 -5.734375 C 1.457031 -5.878906 1.8125 -5.984375 2.15625 -6.046875 C 2.5 -6.117188 2.828125 -6.15625 3.140625 -6.15625 C 4.015625 -6.15625 4.664062 -5.929688 5.09375 -5.484375 C 5.519531 -5.035156 5.734375 -4.351562 5.734375 -3.4375 Z M 5.734375 -3.4375 "/>
</symbol>
<symbol overflow="visible" id="glyph1-3">
<path style="stroke:none;" d="M 2.015625 -7.71875 L 2.015625 -6.015625 L 4.046875 -6.015625 L 4.046875 -5.25 L 2.015625 -5.25 L 2.015625 -1.984375 C 2.015625 -1.492188 2.082031 -1.175781 2.21875 -1.03125 C 2.351562 -0.894531 2.625 -0.828125 3.03125 -0.828125 L 4.046875 -0.828125 L 4.046875 0 L 3.03125 0 C 2.269531 0 1.742188 -0.140625 1.453125 -0.421875 C 1.160156 -0.710938 1.015625 -1.234375 1.015625 -1.984375 L 1.015625 -5.25 L 0.296875 -5.25 L 0.296875 -6.015625 L 1.015625 -6.015625 L 1.015625 -7.71875 Z M 2.015625 -7.71875 "/>
</symbol>
<symbol overflow="visible" id="glyph1-4">
<path style="stroke:none;" d="M 6.1875 -3.25 L 6.1875 -2.765625 L 1.640625 -2.765625 C 1.679688 -2.085938 1.882812 -1.570312 2.25 -1.21875 C 2.613281 -0.863281 3.125 -0.6875 3.78125 -0.6875 C 4.164062 -0.6875 4.535156 -0.734375 4.890625 -0.828125 C 5.242188 -0.921875 5.597656 -1.054688 5.953125 -1.234375 L 5.953125 -0.3125 C 5.597656 -0.15625 5.234375 -0.0390625 4.859375 0.03125 C 4.484375 0.113281 4.109375 0.15625 3.734375 0.15625 C 2.765625 0.15625 2 -0.117188 1.4375 -0.671875 C 0.882812 -1.234375 0.609375 -1.992188 0.609375 -2.953125 C 0.609375 -3.929688 0.875 -4.707031 1.40625 -5.28125 C 1.9375 -5.863281 2.65625 -6.15625 3.5625 -6.15625 C 4.363281 -6.15625 5 -5.894531 5.46875 -5.375 C 5.945312 -4.851562 6.1875 -4.144531 6.1875 -3.25 Z M 5.1875 -3.546875 C 5.1875 -4.085938 5.035156 -4.519531 4.734375 -4.84375 C 4.441406 -5.164062 4.050781 -5.328125 3.5625 -5.328125 C 3.007812 -5.328125 2.566406 -5.171875 2.234375 -4.859375 C 1.910156 -4.546875 1.722656 -4.109375 1.671875 -3.546875 Z M 5.1875 -3.546875 "/>
</symbol>
<symbol overflow="visible" id="glyph1-5">
<path style="stroke:none;" d="M 5 -3.078125 C 5 -3.796875 4.847656 -4.347656 4.546875 -4.734375 C 4.253906 -5.128906 3.84375 -5.328125 3.3125 -5.328125 C 2.78125 -5.328125 2.363281 -5.128906 2.0625 -4.734375 C 1.769531 -4.347656 1.625 -3.796875 1.625 -3.078125 C 1.625 -2.367188 1.769531 -1.816406 2.0625 -1.421875 C 2.363281 -1.023438 2.78125 -0.828125 3.3125 -0.828125 C 3.84375 -0.828125 4.253906 -1.023438 4.546875 -1.421875 C 4.847656 -1.816406 5 -2.367188 5 -3.078125 Z M 5.984375 -0.75 C 5.984375 0.28125 5.753906 1.039062 5.296875 1.53125 C 4.847656 2.03125 4.15625 2.28125 3.21875 2.28125 C 2.863281 2.28125 2.53125 2.253906 2.21875 2.203125 C 1.914062 2.148438 1.617188 2.070312 1.328125 1.96875 L 1.328125 1.015625 C 1.617188 1.171875 1.90625 1.285156 2.1875 1.359375 C 2.46875 1.429688 2.757812 1.46875 3.0625 1.46875 C 3.707031 1.46875 4.191406 1.296875 4.515625 0.953125 C 4.835938 0.617188 5 0.113281 5 -0.5625 L 5 -1.0625 C 4.789062 -0.707031 4.523438 -0.441406 4.203125 -0.265625 C 3.890625 -0.0859375 3.507812 0 3.0625 0 C 2.320312 0 1.726562 -0.28125 1.28125 -0.84375 C 0.832031 -1.40625 0.609375 -2.148438 0.609375 -3.078125 C 0.609375 -4.003906 0.832031 -4.75 1.28125 -5.3125 C 1.726562 -5.875 2.320312 -6.15625 3.0625 -6.15625 C 3.507812 -6.15625 3.890625 -6.066406 4.203125 -5.890625 C 4.523438 -5.722656 4.789062 -5.460938 5 -5.109375 L 5 -6.015625 L 5.984375 -6.015625 Z M 5.984375 -0.75 "/>
</symbol>
<symbol overflow="visible" id="glyph1-6">
<path style="stroke:none;" d="M 3.375 -5.328125 C 2.84375 -5.328125 2.421875 -5.117188 2.109375 -4.703125 C 1.804688 -4.285156 1.65625 -3.71875 1.65625 -3 C 1.65625 -2.28125 1.804688 -1.710938 2.109375 -1.296875 C 2.410156 -0.890625 2.832031 -0.6875 3.375 -0.6875 C 3.894531 -0.6875 4.304688 -0.890625 4.609375 -1.296875 C 4.921875 -1.710938 5.078125 -2.28125 5.078125 -3 C 5.078125 -3.71875 4.921875 -4.285156 4.609375 -4.703125 C 4.304688 -5.117188 3.894531 -5.328125 3.375 -5.328125 Z M 3.375 -6.15625 C 4.226562 -6.15625 4.898438 -5.875 5.390625 -5.3125 C 5.878906 -4.757812 6.125 -3.988281 6.125 -3 C 6.125 -2.019531 5.878906 -1.25 5.390625 -0.6875 C 4.898438 -0.125 4.226562 0.15625 3.375 0.15625 C 2.507812 0.15625 1.832031 -0.125 1.34375 -0.6875 C 0.851562 -1.25 0.609375 -2.019531 0.609375 -3 C 0.609375 -3.988281 0.851562 -4.757812 1.34375 -5.3125 C 1.832031 -5.875 2.507812 -6.15625 3.375 -6.15625 Z M 3.375 -6.15625 "/>
</symbol>
<symbol overflow="visible" id="glyph1-7">
<path style="stroke:none;" d="M 5.609375 1.828125 L 5.609375 2.59375 L -0.109375 2.59375 L -0.109375 1.828125 Z M 5.609375 1.828125 "/>
</symbol>
<symbol overflow="visible" id="glyph1-8">
<path style="stroke:none;" d="M 0.328125 -6.015625 L 1.375 -6.015625 L 3.25 -0.96875 L 5.140625 -6.015625 L 6.1875 -6.015625 L 3.921875 0 L 2.578125 0 Z M 0.328125 -6.015625 "/>
</symbol>
<symbol overflow="visible" id="glyph1-9">
<path style="stroke:none;" d="M 1.03125 -8.359375 L 2.03125 -8.359375 L 2.03125 0 L 1.03125 0 Z M 1.03125 -8.359375 "/>
</symbol>
<symbol overflow="visible" id="glyph1-10">
<path style="stroke:none;" d="M 0.9375 -2.375 L 0.9375 -6.015625 L 1.921875 -6.015625 L 1.921875 -2.40625 C 1.921875 -1.84375 2.03125 -1.414062 2.25 -1.125 C 2.476562 -0.84375 2.8125 -0.703125 3.25 -0.703125 C 3.789062 -0.703125 4.210938 -0.867188 4.515625 -1.203125 C 4.828125 -1.546875 4.984375 -2.015625 4.984375 -2.609375 L 4.984375 -6.015625 L 5.96875 -6.015625 L 5.96875 0 L 4.984375 0 L 4.984375 -0.921875 C 4.742188 -0.554688 4.460938 -0.285156 4.140625 -0.109375 C 3.828125 0.0664062 3.460938 0.15625 3.046875 0.15625 C 2.359375 0.15625 1.832031 -0.0546875 1.46875 -0.484375 C 1.113281 -0.921875 0.9375 -1.550781 0.9375 -2.375 Z M 3.421875 -6.15625 Z M 3.421875 -6.15625 "/>
</symbol>
<symbol overflow="visible" id="glyph2-0">
<path style="stroke:none;" d="M 1.9375 -0.546875 L -7.75 -0.546875 L -7.75 -6.046875 L 1.9375 -6.046875 Z M 1.328125 -1.171875 L 1.328125 -5.4375 L -7.140625 -5.4375 L -7.140625 -1.171875 Z M 1.328125 -1.171875 "/>
</symbol>
<symbol overflow="visible" id="glyph2-1">
<path style="stroke:none;" d="M -3.765625 -4.875 C -3.679688 -5.113281 -3.507812 -5.34375 -3.25 -5.5625 C -3 -5.78125 -2.644531 -6 -2.1875 -6.21875 L 0 -7.328125 L 0 -6.15625 L -2.0625 -5.140625 C -2.59375 -4.867188 -2.945312 -4.609375 -3.125 -4.359375 C -3.300781 -4.109375 -3.390625 -3.769531 -3.390625 -3.34375 L -3.390625 -2.171875 L 0 -2.171875 L 0 -1.078125 L -8.015625 -1.078125 L -8.015625 -3.53125 C -8.015625 -4.445312 -7.820312 -5.128906 -7.4375 -5.578125 C -7.0625 -6.023438 -6.484375 -6.25 -5.703125 -6.25 C -5.203125 -6.25 -4.785156 -6.128906 -4.453125 -5.890625 C -4.117188 -5.660156 -3.890625 -5.320312 -3.765625 -4.875 Z M -7.125 -2.171875 L -4.28125 -2.171875 L -4.28125 -3.53125 C -4.28125 -4.050781 -4.398438 -4.441406 -4.640625 -4.703125 C -4.878906 -4.972656 -5.234375 -5.109375 -5.703125 -5.109375 C -6.171875 -5.109375 -6.523438 -4.972656 -6.765625 -4.703125 C -7.003906 -4.441406 -7.125 -4.050781 -7.125 -3.53125 Z M -7.125 -2.171875 "/>
</symbol>
<symbol overflow="visible" id="glyph2-2">
<path style="stroke:none;" d="M -3.25 -6.1875 L -2.765625 -6.1875 L -2.765625 -1.640625 C -2.085938 -1.679688 -1.570312 -1.882812 -1.21875 -2.25 C -0.863281 -2.613281 -0.6875 -3.125 -0.6875 -3.78125 C -0.6875 -4.164062 -0.734375 -4.535156 -0.828125 -4.890625 C -0.921875 -5.242188 -1.054688 -5.597656 -1.234375 -5.953125 L -0.3125 -5.953125 C -0.15625 -5.597656 -0.0390625 -5.234375 0.03125 -4.859375 C 0.113281 -4.484375 0.15625 -4.109375 0.15625 -3.734375 C 0.15625 -2.765625 -0.117188 -2 -0.671875 -1.4375 C -1.234375 -0.882812 -1.992188 -0.609375 -2.953125 -0.609375 C -3.929688 -0.609375 -4.707031 -0.875 -5.28125 -1.40625 C -5.863281 -1.9375 -6.15625 -2.65625 -6.15625 -3.5625 C -6.15625 -4.363281 -5.894531 -5 -5.375 -5.46875 C -4.851562 -5.945312 -4.144531 -6.1875 -3.25 -6.1875 Z M -3.546875 -5.1875 C -4.085938 -5.1875 -4.519531 -5.035156 -4.84375 -4.734375 C -5.164062 -4.441406 -5.328125 -4.050781 -5.328125 -3.5625 C -5.328125 -3.007812 -5.171875 -2.566406 -4.859375 -2.234375 C -4.546875 -1.910156 -4.109375 -1.722656 -3.546875 -1.671875 Z M -3.546875 -5.1875 "/>
</symbol>
<symbol overflow="visible" id="glyph2-3">
<path style="stroke:none;" d="M -0.90625 -2 L 2.28125 -2 L 2.28125 -1 L -6.015625 -1 L -6.015625 -2 L -5.109375 -2 C -5.460938 -2.195312 -5.722656 -2.453125 -5.890625 -2.765625 C -6.066406 -3.085938 -6.15625 -3.472656 -6.15625 -3.921875 C -6.15625 -4.648438 -5.863281 -5.238281 -5.28125 -5.6875 C -4.707031 -6.144531 -3.945312 -6.375 -3 -6.375 C -2.050781 -6.375 -1.285156 -6.144531 -0.703125 -5.6875 C -0.128906 -5.238281 0.15625 -4.648438 0.15625 -3.921875 C 0.15625 -3.472656 0.0703125 -3.085938 -0.09375 -2.765625 C -0.269531 -2.453125 -0.539062 -2.195312 -0.90625 -2 Z M -3 -5.359375 C -3.726562 -5.359375 -4.296875 -5.207031 -4.703125 -4.90625 C -5.117188 -4.601562 -5.328125 -4.191406 -5.328125 -3.671875 C -5.328125 -3.148438 -5.117188 -2.738281 -4.703125 -2.4375 C -4.296875 -2.144531 -3.726562 -2 -3 -2 C -2.269531 -2 -1.695312 -2.144531 -1.28125 -2.4375 C -0.875 -2.738281 -0.671875 -3.148438 -0.671875 -3.671875 C -0.671875 -4.191406 -0.875 -4.601562 -1.28125 -4.90625 C -1.695312 -5.207031 -2.269531 -5.359375 -3 -5.359375 Z M -3 -5.359375 "/>
</symbol>
<symbol overflow="visible" id="glyph2-4">
<path style="stroke:none;" d="M -5.328125 -3.375 C -5.328125 -2.84375 -5.117188 -2.421875 -4.703125 -2.109375 C -4.285156 -1.804688 -3.71875 -1.65625 -3 -1.65625 C -2.28125 -1.65625 -1.710938 -1.804688 -1.296875 -2.109375 C -0.890625 -2.410156 -0.6875 -2.832031 -0.6875 -3.375 C -0.6875 -3.894531 -0.890625 -4.304688 -1.296875 -4.609375 C -1.710938 -4.921875 -2.28125 -5.078125 -3 -5.078125 C -3.71875 -5.078125 -4.285156 -4.921875 -4.703125 -4.609375 C -5.117188 -4.304688 -5.328125 -3.894531 -5.328125 -3.375 Z M -6.15625 -3.375 C -6.15625 -4.226562 -5.875 -4.898438 -5.3125 -5.390625 C -4.757812 -5.878906 -3.988281 -6.125 -3 -6.125 C -2.019531 -6.125 -1.25 -5.878906 -0.6875 -5.390625 C -0.125 -4.898438 0.15625 -4.226562 0.15625 -3.375 C 0.15625 -2.507812 -0.125 -1.832031 -0.6875 -1.34375 C -1.25 -0.851562 -2.019531 -0.609375 -3 -0.609375 C -3.988281 -0.609375 -4.757812 -0.851562 -5.3125 -1.34375 C -5.875 -1.832031 -6.15625 -2.507812 -6.15625 -3.375 Z M -6.15625 -3.375 "/>
</symbol>
<symbol overflow="visible" id="glyph2-5">
<path style="stroke:none;" d="M -5.09375 -4.515625 C -5.15625 -4.410156 -5.203125 -4.289062 -5.234375 -4.15625 C -5.265625 -4.03125 -5.28125 -3.890625 -5.28125 -3.734375 C -5.28125 -3.171875 -5.097656 -2.738281 -4.734375 -2.4375 C -4.367188 -2.144531 -3.847656 -2 -3.171875 -2 L 0 -2 L 0 -1 L -6.015625 -1 L -6.015625 -2 L -5.078125 -2 C -5.441406 -2.195312 -5.710938 -2.460938 -5.890625 -2.796875 C -6.066406 -3.128906 -6.15625 -3.535156 -6.15625 -4.015625 C -6.15625 -4.085938 -6.148438 -4.160156 -6.140625 -4.234375 C -6.140625 -4.316406 -6.128906 -4.410156 -6.109375 -4.515625 Z M -5.09375 -4.515625 "/>
</symbol>
<symbol overflow="visible" id="glyph2-6">
<path style="stroke:none;" d="M -7.71875 -2.015625 L -6.015625 -2.015625 L -6.015625 -4.046875 L -5.25 -4.046875 L -5.25 -2.015625 L -1.984375 -2.015625 C -1.492188 -2.015625 -1.175781 -2.082031 -1.03125 -2.21875 C -0.894531 -2.351562 -0.828125 -2.625 -0.828125 -3.03125 L -0.828125 -4.046875 L 0 -4.046875 L 0 -3.03125 C 0 -2.269531 -0.140625 -1.742188 -0.421875 -1.453125 C -0.710938 -1.160156 -1.234375 -1.015625 -1.984375 -1.015625 L -5.25 -1.015625 L -5.25 -0.296875 L -6.015625 -0.296875 L -6.015625 -1.015625 L -7.71875 -1.015625 Z M -7.71875 -2.015625 "/>
</symbol>
<symbol overflow="visible" id="glyph2-7">
<path style="stroke:none;" d="M -5.109375 -5 L -8.359375 -5 L -8.359375 -5.984375 L 0 -5.984375 L 0 -5 L -0.90625 -5 C -0.539062 -4.789062 -0.269531 -4.523438 -0.09375 -4.203125 C 0.0703125 -3.890625 0.15625 -3.507812 0.15625 -3.0625 C 0.15625 -2.34375 -0.128906 -1.753906 -0.703125 -1.296875 C -1.285156 -0.835938 -2.050781 -0.609375 -3 -0.609375 C -3.945312 -0.609375 -4.707031 -0.835938 -5.28125 -1.296875 C -5.863281 -1.753906 -6.15625 -2.34375 -6.15625 -3.0625 C -6.15625 -3.507812 -6.066406 -3.890625 -5.890625 -4.203125 C -5.722656 -4.523438 -5.460938 -4.789062 -5.109375 -5 Z M -3 -1.625 C -2.269531 -1.625 -1.695312 -1.773438 -1.28125 -2.078125 C -0.875 -2.378906 -0.671875 -2.789062 -0.671875 -3.3125 C -0.671875 -3.832031 -0.875 -4.242188 -1.28125 -4.546875 C -1.695312 -4.847656 -2.269531 -5 -3 -5 C -3.726562 -5 -4.296875 -4.847656 -4.703125 -4.546875 C -5.117188 -4.242188 -5.328125 -3.832031 -5.328125 -3.3125 C -5.328125 -2.789062 -5.117188 -2.378906 -4.703125 -2.078125 C -4.296875 -1.773438 -3.726562 -1.625 -3 -1.625 Z M -3 -1.625 "/>
</symbol>
<symbol overflow="visible" id="glyph2-8">
<path style="stroke:none;" d=""/>
</symbol>
<symbol overflow="visible" id="glyph2-9">
<path style="stroke:none;" d="M -7.40625 -7.078125 L -6.25 -7.078125 C -6.59375 -6.710938 -6.847656 -6.320312 -7.015625 -5.90625 C -7.179688 -5.5 -7.265625 -5.0625 -7.265625 -4.59375 C -7.265625 -3.675781 -6.984375 -2.972656 -6.421875 -2.484375 C -5.867188 -2.003906 -5.0625 -1.765625 -4 -1.765625 C -2.945312 -1.765625 -2.140625 -2.003906 -1.578125 -2.484375 C -1.015625 -2.972656 -0.734375 -3.675781 -0.734375 -4.59375 C -0.734375 -5.0625 -0.816406 -5.5 -0.984375 -5.90625 C -1.148438 -6.320312 -1.40625 -6.710938 -1.75 -7.078125 L -0.625 -7.078125 C -0.363281 -6.703125 -0.164062 -6.300781 -0.03125 -5.875 C 0.09375 -5.457031 0.15625 -5.007812 0.15625 -4.53125 C 0.15625 -3.320312 -0.210938 -2.367188 -0.953125 -1.671875 C -1.703125 -0.972656 -2.71875 -0.625 -4 -0.625 C -5.289062 -0.625 -6.304688 -0.972656 -7.046875 -1.671875 C -7.796875 -2.367188 -8.171875 -3.320312 -8.171875 -4.53125 C -8.171875 -5.007812 -8.101562 -5.460938 -7.96875 -5.890625 C -7.84375 -6.316406 -7.65625 -6.710938 -7.40625 -7.078125 Z M -7.40625 -7.078125 "/>
</symbol>
<symbol overflow="visible" id="glyph2-10">
<path style="stroke:none;" d="M -7.28125 -4.328125 C -7.28125 -3.546875 -6.984375 -2.921875 -6.390625 -2.453125 C -5.804688 -1.992188 -5.007812 -1.765625 -4 -1.765625 C -2.988281 -1.765625 -2.1875 -1.992188 -1.59375 -2.453125 C -1.007812 -2.921875 -0.71875 -3.546875 -0.71875 -4.328125 C -0.71875 -5.117188 -1.007812 -5.742188 -1.59375 -6.203125 C -2.1875 -6.660156 -2.988281 -6.890625 -4 -6.890625 C -5.007812 -6.890625 -5.804688 -6.660156 -6.390625 -6.203125 C -6.984375 -5.742188 -7.28125 -5.117188 -7.28125 -4.328125 Z M -8.171875 -4.328125 C -8.171875 -5.453125 -7.789062 -6.351562 -7.03125 -7.03125 C -6.28125 -7.707031 -5.269531 -8.046875 -4 -8.046875 C -2.738281 -8.046875 -1.726562 -7.707031 -0.96875 -7.03125 C -0.21875 -6.351562 0.15625 -5.453125 0.15625 -4.328125 C 0.15625 -3.203125 -0.21875 -2.300781 -0.96875 -1.625 C -1.71875 -0.957031 -2.726562 -0.625 -4 -0.625 C -5.269531 -0.625 -6.28125 -0.957031 -7.03125 -1.625 C -7.789062 -2.300781 -8.171875 -3.203125 -8.171875 -4.328125 Z M -8.171875 -4.328125 "/>
</symbol>
<symbol overflow="visible" id="glyph2-11">
<path style="stroke:none;" d="M 0 -3.140625 L -8.015625 -0.09375 L -8.015625 -1.21875 L -1.265625 -3.765625 L -8.015625 -6.3125 L -8.015625 -7.4375 L 0 -4.375 Z M 0 -3.140625 "/>
</symbol>
<symbol overflow="visible" id="glyph2-12">
<path style="stroke:none;" d="M -8.015625 -1.078125 L -8.015625 -2.171875 L 0 -2.171875 L 0 -1.078125 Z M -8.015625 -1.078125 "/>
</symbol>
<symbol overflow="visible" id="glyph2-13">
<path style="stroke:none;" d="M -7.125 -2.171875 L -0.890625 -2.171875 L -0.890625 -3.46875 C -0.890625 -4.582031 -1.140625 -5.394531 -1.640625 -5.90625 C -2.140625 -6.414062 -2.929688 -6.671875 -4.015625 -6.671875 C -5.085938 -6.671875 -5.875 -6.414062 -6.375 -5.90625 C -6.875 -5.394531 -7.125 -4.582031 -7.125 -3.46875 Z M -8.015625 -1.078125 L -8.015625 -3.3125 C -8.015625 -4.863281 -7.691406 -6.003906 -7.046875 -6.734375 C -6.398438 -7.460938 -5.390625 -7.828125 -4.015625 -7.828125 C -2.628906 -7.828125 -1.613281 -7.457031 -0.96875 -6.71875 C -0.320312 -5.988281 0 -4.851562 0 -3.3125 L 0 -1.078125 Z M -8.015625 -1.078125 "/>
</symbol>
<symbol overflow="visible" id="glyph2-14">
<path style="stroke:none;" d="M -3.453125 -0.53125 L -3.453125 -3.4375 L -2.578125 -3.4375 L -2.578125 -0.53125 Z M -3.453125 -0.53125 "/>
</symbol>
<symbol overflow="visible" id="glyph2-15">
<path style="stroke:none;" d="M -0.90625 -1.359375 L -0.90625 -3.140625 L -7.03125 -3.140625 L -6.640625 -1.203125 L -7.625 -1.203125 L -8.015625 -3.125 L -8.015625 -4.21875 L -0.90625 -4.21875 L -0.90625 -5.984375 L 0 -5.984375 L 0 -1.359375 Z M -0.90625 -1.359375 "/>
</symbol>
<symbol overflow="visible" id="glyph2-16">
<path style="stroke:none;" d="M -0.171875 -1.203125 L -1.15625 -1.203125 C -1.03125 -1.472656 -0.929688 -1.75 -0.859375 -2.03125 C -0.785156 -2.3125 -0.75 -2.585938 -0.75 -2.859375 C -0.75 -3.578125 -0.988281 -4.125 -1.46875 -4.5 C -1.957031 -4.875 -2.691406 -5.085938 -3.671875 -5.140625 C -3.367188 -4.929688 -3.132812 -4.664062 -2.96875 -4.34375 C -2.800781 -4.03125 -2.71875 -3.679688 -2.71875 -3.296875 C -2.71875 -2.492188 -2.957031 -1.859375 -3.4375 -1.390625 C -3.925781 -0.921875 -4.59375 -0.6875 -5.4375 -0.6875 C -6.257812 -0.6875 -6.921875 -0.929688 -7.421875 -1.421875 C -7.921875 -1.910156 -8.171875 -2.5625 -8.171875 -3.375 C -8.171875 -4.300781 -7.8125 -5.003906 -7.09375 -5.484375 C -6.382812 -5.972656 -5.351562 -6.21875 -4 -6.21875 C -2.738281 -6.21875 -1.726562 -5.914062 -0.96875 -5.3125 C -0.21875 -4.71875 0.15625 -3.914062 0.15625 -2.90625 C 0.15625 -2.632812 0.128906 -2.359375 0.078125 -2.078125 C 0.0234375 -1.796875 -0.0546875 -1.503906 -0.171875 -1.203125 Z M -3.5625 -3.375 C -3.5625 -3.851562 -3.726562 -4.234375 -4.0625 -4.515625 C -4.394531 -4.804688 -4.851562 -4.953125 -5.4375 -4.953125 C -6.007812 -4.953125 -6.460938 -4.804688 -6.796875 -4.515625 C -7.140625 -4.234375 -7.3125 -3.851562 -7.3125 -3.375 C -7.3125 -2.882812 -7.140625 -2.492188 -6.796875 -2.203125 C -6.460938 -1.921875 -6.007812 -1.78125 -5.4375 -1.78125 C -4.851562 -1.78125 -4.394531 -1.921875 -4.0625 -2.203125 C -3.726562 -2.492188 -3.5625 -2.882812 -3.5625 -3.375 Z M -3.5625 -3.375 "/>
</symbol>
<symbol overflow="visible" id="glyph2-17">
<path style="stroke:none;" d="M -5.78125 -5.359375 L -4.859375 -5.359375 C -5.015625 -5.085938 -5.128906 -4.8125 -5.203125 -4.53125 C -5.285156 -4.25 -5.328125 -3.960938 -5.328125 -3.671875 C -5.328125 -3.035156 -5.125 -2.539062 -4.71875 -2.1875 C -4.3125 -1.832031 -3.738281 -1.65625 -3 -1.65625 C -2.269531 -1.65625 -1.703125 -1.832031 -1.296875 -2.1875 C -0.890625 -2.539062 -0.6875 -3.035156 -0.6875 -3.671875 C -0.6875 -3.960938 -0.722656 -4.25 -0.796875 -4.53125 C -0.867188 -4.8125 -0.984375 -5.085938 -1.140625 -5.359375 L -0.234375 -5.359375 C -0.0976562 -5.085938 0 -4.800781 0.0625 -4.5 C 0.125 -4.207031 0.15625 -3.894531 0.15625 -3.5625 C 0.15625 -2.65625 -0.125 -1.9375 -0.6875 -1.40625 C -1.257812 -0.875 -2.03125 -0.609375 -3 -0.609375 C -3.976562 -0.609375 -4.75 -0.875 -5.3125 -1.40625 C -5.875 -1.945312 -6.15625 -2.6875 -6.15625 -3.625 C -6.15625 -3.9375 -6.125 -4.234375 -6.0625 -4.515625 C -6 -4.804688 -5.90625 -5.085938 -5.78125 -5.359375 Z M -5.78125 -5.359375 "/>
</symbol>
<symbol overflow="visible" id="glyph2-18">
<path style="stroke:none;" d="M -2.375 -0.9375 L -6.015625 -0.9375 L -6.015625 -1.921875 L -2.40625 -1.921875 C -1.84375 -1.921875 -1.414062 -2.03125 -1.125 -2.25 C -0.84375 -2.476562 -0.703125 -2.8125 -0.703125 -3.25 C -0.703125 -3.789062 -0.867188 -4.210938 -1.203125 -4.515625 C -1.546875 -4.828125 -2.015625 -4.984375 -2.609375 -4.984375 L -6.015625 -4.984375 L -6.015625 -5.96875 L 0 -5.96875 L 0 -4.984375 L -0.921875 -4.984375 C -0.554688 -4.742188 -0.285156 -4.460938 -0.109375 -4.140625 C 0.0664062 -3.828125 0.15625 -3.460938 0.15625 -3.046875 C 0.15625 -2.359375 -0.0546875 -1.832031 -0.484375 -1.46875 C -0.921875 -1.113281 -1.550781 -0.9375 -2.375 -0.9375 Z M -6.15625 -3.421875 Z M -6.15625 -3.421875 "/>
</symbol>
<symbol overflow="visible" id="glyph2-19">
<path style="stroke:none;" d="M -3.625 -6.03125 L 0 -6.03125 L 0 -5.046875 L -3.59375 -5.046875 C -4.164062 -5.046875 -4.59375 -4.9375 -4.875 -4.71875 C -5.15625 -4.5 -5.296875 -4.164062 -5.296875 -3.71875 C -5.296875 -3.1875 -5.125 -2.765625 -4.78125 -2.453125 C -4.445312 -2.148438 -3.988281 -2 -3.40625 -2 L 0 -2 L 0 -1 L -6.015625 -1 L -6.015625 -2 L -5.078125 -2 C -5.441406 -2.226562 -5.710938 -2.503906 -5.890625 -2.828125 C -6.066406 -3.148438 -6.15625 -3.519531 -6.15625 -3.9375 C -6.15625 -4.625 -5.941406 -5.144531 -5.515625 -5.5 C -5.085938 -5.851562 -4.457031 -6.03125 -3.625 -6.03125 Z M -3.625 -6.03125 "/>
</symbol>
<symbol overflow="visible" id="glyph2-20">
<path style="stroke:none;" d="M -5.84375 -4.875 L -4.90625 -4.875 C -5.050781 -4.59375 -5.15625 -4.300781 -5.21875 -4 C -5.289062 -3.695312 -5.328125 -3.382812 -5.328125 -3.0625 C -5.328125 -2.570312 -5.25 -2.203125 -5.09375 -1.953125 C -4.945312 -1.710938 -4.726562 -1.59375 -4.4375 -1.59375 C -4.207031 -1.59375 -4.023438 -1.679688 -3.890625 -1.859375 C -3.765625 -2.035156 -3.640625 -2.390625 -3.515625 -2.921875 L -3.4375 -3.25 C -3.289062 -3.957031 -3.078125 -4.457031 -2.796875 -4.75 C -2.523438 -5.039062 -2.144531 -5.1875 -1.65625 -5.1875 C -1.101562 -5.1875 -0.660156 -4.96875 -0.328125 -4.53125 C -0.00390625 -4.09375 0.15625 -3.484375 0.15625 -2.703125 C 0.15625 -2.378906 0.125 -2.039062 0.0625 -1.6875 C 0 -1.34375 -0.09375 -0.976562 -0.21875 -0.59375 L -1.234375 -0.59375 C -1.046875 -0.957031 -0.90625 -1.316406 -0.8125 -1.671875 C -0.71875 -2.023438 -0.671875 -2.378906 -0.671875 -2.734375 C -0.671875 -3.191406 -0.75 -3.546875 -0.90625 -3.796875 C -1.070312 -4.046875 -1.296875 -4.171875 -1.578125 -4.171875 C -1.847656 -4.171875 -2.054688 -4.082031 -2.203125 -3.90625 C -2.347656 -3.726562 -2.484375 -3.332031 -2.609375 -2.71875 L -2.703125 -2.375 C -2.828125 -1.757812 -3.019531 -1.316406 -3.28125 -1.046875 C -3.550781 -0.773438 -3.921875 -0.640625 -4.390625 -0.640625 C -4.953125 -0.640625 -5.382812 -0.835938 -5.6875 -1.234375 C -6 -1.640625 -6.15625 -2.210938 -6.15625 -2.953125 C -6.15625 -3.316406 -6.128906 -3.660156 -6.078125 -3.984375 C -6.023438 -4.304688 -5.945312 -4.601562 -5.84375 -4.875 Z M -5.84375 -4.875 "/>
</symbol>
</g>
<clipPath id="clip1">
  <path d="M 55.152344 23.246094 L 346.605469 23.246094 L 346.605469 126.925781 L 55.152344 126.925781 Z M 55.152344 23.246094 "/>
</clipPath>
<clipPath id="clip2">
  <path d="M 55.152344 106 L 346.605469 106 L 346.605469 108 L 55.152344 108 Z M 55.152344 106 "/>
</clipPath>
<clipPath id="clip3">
  <path d="M 55.152344 77 L 346.605469 77 L 346.605469 78 L 55.152344 78 Z M 55.152344 77 "/>
</clipPath>
<clipPath id="clip4">
  <path d="M 55.152344 47 L 346.605469 47 L 346.605469 48 L 55.152344 48 Z M 55.152344 47 "/>
</clipPath>
<clipPath id="clip5">
  <path d="M 68 23.246094 L 69 23.246094 L 69 126.925781 L 68 126.925781 Z M 68 23.246094 "/>
</clipPath>
<clipPath id="clip6">
  <path d="M 112 23.246094 L 114 23.246094 L 114 126.925781 L 112 126.925781 Z M 112 23.246094 "/>
</clipPath>
<clipPath id="clip7">
  <path d="M 135 23.246094 L 136 23.246094 L 136 126.925781 L 135 126.925781 Z M 135 23.246094 "/>
</clipPath>
<clipPath id="clip8">
  <path d="M 179 23.246094 L 181 23.246094 L 181 126.925781 L 179 126.925781 Z M 179 23.246094 "/>
</clipPath>
<clipPath id="clip9">
  <path d="M 201 23.246094 L 202 23.246094 L 202 126.925781 L 201 126.925781 Z M 201 23.246094 "/>
</clipPath>
<clipPath id="clip10">
  <path d="M 246 23.246094 L 247 23.246094 L 247 126.925781 L 246 126.925781 Z M 246 23.246094 "/>
</clipPath>
<clipPath id="clip11">
  <path d="M 266 23.246094 L 268 23.246094 L 268 126.925781 L 266 126.925781 Z M 266 23.246094 "/>
</clipPath>
<clipPath id="clip12">
  <path d="M 311 23.246094 L 312 23.246094 L 312 126.925781 L 311 126.925781 Z M 311 23.246094 "/>
</clipPath>
<clipPath id="clip13">
  <path d="M 333 23.246094 L 335 23.246094 L 335 126.925781 L 333 126.925781 Z M 333 23.246094 "/>
</clipPath>
<clipPath id="clip14">
  <path d="M 55.152344 121 L 346.605469 121 L 346.605469 123 L 55.152344 123 Z M 55.152344 121 "/>
</clipPath>
<clipPath id="clip15">
  <path d="M 55.152344 91 L 346.605469 91 L 346.605469 93 L 55.152344 93 Z M 55.152344 91 "/>
</clipPath>
<clipPath id="clip16">
  <path d="M 55.152344 61 L 346.605469 61 L 346.605469 63 L 55.152344 63 Z M 55.152344 61 "/>
</clipPath>
<clipPath id="clip17">
  <path d="M 55.152344 31 L 346.605469 31 L 346.605469 34 L 55.152344 34 Z M 55.152344 31 "/>
</clipPath>
<clipPath id="clip18">
  <path d="M 89 23.246094 L 91 23.246094 L 91 126.925781 L 89 126.925781 Z M 89 23.246094 "/>
</clipPath>
<clipPath id="clip19">
  <path d="M 156 23.246094 L 158 23.246094 L 158 126.925781 L 156 126.925781 Z M 156 23.246094 "/>
</clipPath>
<clipPath id="clip20">
  <path d="M 223 23.246094 L 225 23.246094 L 225 126.925781 L 223 126.925781 Z M 223 23.246094 "/>
</clipPath>
<clipPath id="clip21">
  <path d="M 289 23.246094 L 291 23.246094 L 291 126.925781 L 289 126.925781 Z M 289 23.246094 "/>
</clipPath>
<clipPath id="clip22">
  <path d="M 55.152344 121 L 346.605469 121 L 346.605469 123 L 55.152344 123 Z M 55.152344 121 "/>
</clipPath>
<clipPath id="clip23">
  <path d="M 55.152344 23.246094 L 346.605469 23.246094 L 346.605469 126.925781 L 55.152344 126.925781 Z M 55.152344 23.246094 "/>
</clipPath>
<clipPath id="clip24">
  <path d="M 55.152344 150.171875 L 346.605469 150.171875 L 346.605469 253.851562 L 55.152344 253.851562 Z M 55.152344 150.171875 "/>
</clipPath>
<clipPath id="clip25">
  <path d="M 55.152344 240 L 346.605469 240 L 346.605469 241 L 55.152344 241 Z M 55.152344 240 "/>
</clipPath>
<clipPath id="clip26">
  <path d="M 55.152344 212 L 346.605469 212 L 346.605469 214 L 55.152344 214 Z M 55.152344 212 "/>
</clipPath>
<clipPath id="clip27">
  <path d="M 55.152344 184 L 346.605469 184 L 346.605469 186 L 55.152344 186 Z M 55.152344 184 "/>
</clipPath>
<clipPath id="clip28">
  <path d="M 55.152344 156 L 346.605469 156 L 346.605469 158 L 55.152344 158 Z M 55.152344 156 "/>
</clipPath>
<clipPath id="clip29">
  <path d="M 68 150.171875 L 69 150.171875 L 69 253.851562 L 68 253.851562 Z M 68 150.171875 "/>
</clipPath>
<clipPath id="clip30">
  <path d="M 112 150.171875 L 114 150.171875 L 114 253.851562 L 112 253.851562 Z M 112 150.171875 "/>
</clipPath>
<clipPath id="clip31">
  <path d="M 135 150.171875 L 136 150.171875 L 136 253.851562 L 135 253.851562 Z M 135 150.171875 "/>
</clipPath>
<clipPath id="clip32">
  <path d="M 179 150.171875 L 181 150.171875 L 181 253.851562 L 179 253.851562 Z M 179 150.171875 "/>
</clipPath>
<clipPath id="clip33">
  <path d="M 201 150.171875 L 202 150.171875 L 202 253.851562 L 201 253.851562 Z M 201 150.171875 "/>
</clipPath>
<clipPath id="clip34">
  <path d="M 246 150.171875 L 247 150.171875 L 247 253.851562 L 246 253.851562 Z M 246 150.171875 "/>
</clipPath>
<clipPath id="clip35">
  <path d="M 266 150.171875 L 268 150.171875 L 268 253.851562 L 266 253.851562 Z M 266 150.171875 "/>
</clipPath>
<clipPath id="clip36">
  <path d="M 311 150.171875 L 312 150.171875 L 312 253.851562 L 311 253.851562 Z M 311 150.171875 "/>
</clipPath>
<clipPath id="clip37">
  <path d="M 333 150.171875 L 335 150.171875 L 335 253.851562 L 333 253.851562 Z M 333 150.171875 "/>
</clipPath>
<clipPath id="clip38">
  <path d="M 55.152344 226 L 346.605469 226 L 346.605469 228 L 55.152344 228 Z M 55.152344 226 "/>
</clipPath>
<clipPath id="clip39">
  <path d="M 55.152344 198 L 346.605469 198 L 346.605469 200 L 55.152344 200 Z M 55.152344 198 "/>
</clipPath>
<clipPath id="clip40">
  <path d="M 55.152344 170 L 346.605469 170 L 346.605469 172 L 55.152344 172 Z M 55.152344 170 "/>
</clipPath>
<clipPath id="clip41">
  <path d="M 89 150.171875 L 91 150.171875 L 91 253.851562 L 89 253.851562 Z M 89 150.171875 "/>
</clipPath>
<clipPath id="clip42">
  <path d="M 156 150.171875 L 158 150.171875 L 158 253.851562 L 156 253.851562 Z M 156 150.171875 "/>
</clipPath>
<clipPath id="clip43">
  <path d="M 223 150.171875 L 225 150.171875 L 225 253.851562 L 223 253.851562 Z M 223 150.171875 "/>
</clipPath>
<clipPath id="clip44">
  <path d="M 289 150.171875 L 291 150.171875 L 291 253.851562 L 289 253.851562 Z M 289 150.171875 "/>
</clipPath>
<clipPath id="clip45">
  <path d="M 55.152344 198 L 346.605469 198 L 346.605469 200 L 55.152344 200 Z M 55.152344 198 "/>
</clipPath>
<clipPath id="clip46">
  <path d="M 55.152344 150.171875 L 346.605469 150.171875 L 346.605469 253.851562 L 55.152344 253.851562 Z M 55.152344 150.171875 "/>
</clipPath>
<clipPath id="clip47">
  <path d="M 55.152344 132.402344 L 346.605469 132.402344 L 346.605469 150.167969 L 55.152344 150.167969 Z M 55.152344 132.402344 "/>
</clipPath>
<clipPath id="clip48">
  <path d="M 55.152344 5.480469 L 346.605469 5.480469 L 346.605469 23.246094 L 55.152344 23.246094 Z M 55.152344 5.480469 "/>
</clipPath>
</defs>
<g id="surface11">
<rect x="0" y="0" width="432" height="288" style="fill:rgb(100%,100%,100%);fill-opacity:1;stroke:none;"/>
<path style="fill:none;stroke-width:1.066978;stroke-linecap:round;stroke-linejoin:round;stroke:rgb(100%,100%,100%);stroke-opacity:1;stroke-miterlimit:10;" d="M 0 288 L 432 288 L 432 0 L 0 0 Z M 0 288 "/>
<g clip-path="url(#clip1)" clip-rule="nonzero">
<path style=" stroke:none;fill-rule:nonzero;fill:rgb(100%,100%,100%);fill-opacity:1;" d="M 55.152344 126.925781 L 346.605469 126.925781 L 346.605469 23.246094 L 55.152344 23.246094 Z M 55.152344 126.925781 "/>
</g>
<g clip-path="url(#clip2)" clip-rule="nonzero">
<path style="fill:none;stroke-width:0.533489;stroke-linecap:butt;stroke-linejoin:round;stroke:rgb(92.156863%,92.156863%,92.156863%);stroke-opacity:1;stroke-miterlimit:10;" d="M 55.152344 107.261719 L 346.601562 107.261719 "/>
</g>
<g clip-path="url(#clip3)" clip-rule="nonzero">
<path style="fill:none;stroke-width:0.533489;stroke-linecap:butt;stroke-linejoin:round;stroke:rgb(92.156863%,92.156863%,92.156863%);stroke-opacity:1;stroke-miterlimit:10;" d="M 55.152344 77.355469 L 346.601562 77.355469 "/>
</g>
<g clip-path="url(#clip4)" clip-rule="nonzero">
<path style="fill:none;stroke-width:0.533489;stroke-linecap:butt;stroke-linejoin:round;stroke:rgb(92.156863%,92.156863%,92.156863%);stroke-opacity:1;stroke-miterlimit:10;" d="M 55.152344 47.449219 L 346.601562 47.449219 "/>
</g>
<g clip-path="url(#clip5)" clip-rule="nonzero">
<path style="fill:none;stroke-width:0.533489;stroke-linecap:butt;stroke-linejoin:round;stroke:rgb(92.156863%,92.156863%,92.156863%);stroke-opacity:1;stroke-miterlimit:10;" d="M 68.398438 126.925781 L 68.398438 23.246094 "/>
</g>
<g clip-path="url(#clip6)" clip-rule="nonzero">
<path style="fill:none;stroke-width:0.533489;stroke-linecap:butt;stroke-linejoin:round;stroke:rgb(92.156863%,92.156863%,92.156863%);stroke-opacity:1;stroke-miterlimit:10;" d="M 112.800781 126.925781 L 112.800781 23.246094 "/>
</g>
<g clip-path="url(#clip7)" clip-rule="nonzero">
<path style="fill:none;stroke-width:0.533489;stroke-linecap:butt;stroke-linejoin:round;stroke:rgb(92.156863%,92.156863%,92.156863%);stroke-opacity:1;stroke-miterlimit:10;" d="M 135.367188 126.925781 L 135.367188 23.246094 "/>
</g>
<g clip-path="url(#clip8)" clip-rule="nonzero">
<path style="fill:none;stroke-width:0.533489;stroke-linecap:butt;stroke-linejoin:round;stroke:rgb(92.156863%,92.156863%,92.156863%);stroke-opacity:1;stroke-miterlimit:10;" d="M 179.765625 126.925781 L 179.765625 23.246094 "/>
</g>
<g clip-path="url(#clip9)" clip-rule="nonzero">
<path style="fill:none;stroke-width:0.533489;stroke-linecap:butt;stroke-linejoin:round;stroke:rgb(92.156863%,92.156863%,92.156863%);stroke-opacity:1;stroke-miterlimit:10;" d="M 201.605469 126.925781 L 201.605469 23.246094 "/>
</g>
<g clip-path="url(#clip10)" clip-rule="nonzero">
<path style="fill:none;stroke-width:0.533489;stroke-linecap:butt;stroke-linejoin:round;stroke:rgb(92.156863%,92.156863%,92.156863%);stroke-opacity:1;stroke-miterlimit:10;" d="M 246.734375 126.925781 L 246.734375 23.246094 "/>
</g>
<g clip-path="url(#clip11)" clip-rule="nonzero">
<path style="fill:none;stroke-width:0.533489;stroke-linecap:butt;stroke-linejoin:round;stroke:rgb(92.156863%,92.156863%,92.156863%);stroke-opacity:1;stroke-miterlimit:10;" d="M 267.117188 126.925781 L 267.117188 23.246094 "/>
</g>
<g clip-path="url(#clip12)" clip-rule="nonzero">
<path style="fill:none;stroke-width:0.533489;stroke-linecap:butt;stroke-linejoin:round;stroke:rgb(92.156863%,92.156863%,92.156863%);stroke-opacity:1;stroke-miterlimit:10;" d="M 311.519531 126.925781 L 311.519531 23.246094 "/>
</g>
<g clip-path="url(#clip13)" clip-rule="nonzero">
<path style="fill:none;stroke-width:0.533489;stroke-linecap:butt;stroke-linejoin:round;stroke:rgb(92.156863%,92.156863%,92.156863%);stroke-opacity:1;stroke-miterlimit:10;" d="M 334.082031 126.925781 L 334.082031 23.246094 "/>
</g>
<g clip-path="url(#clip14)" clip-rule="nonzero">
<path style="fill:none;stroke-width:1.066978;stroke-linecap:butt;stroke-linejoin:round;stroke:rgb(92.156863%,92.156863%,92.156863%);stroke-opacity:1;stroke-miterlimit:10;" d="M 55.152344 122.210938 L 346.601562 122.210938 "/>
</g>
<g clip-path="url(#clip15)" clip-rule="nonzero">
<path style="fill:none;stroke-width:1.066978;stroke-linecap:butt;stroke-linejoin:round;stroke:rgb(92.156863%,92.156863%,92.156863%);stroke-opacity:1;stroke-miterlimit:10;" d="M 55.152344 92.308594 L 346.601562 92.308594 "/>
</g>
<g clip-path="url(#clip16)" clip-rule="nonzero">
<path style="fill:none;stroke-width:1.066978;stroke-linecap:butt;stroke-linejoin:round;stroke:rgb(92.156863%,92.156863%,92.156863%);stroke-opacity:1;stroke-miterlimit:10;" d="M 55.152344 62.402344 L 346.601562 62.402344 "/>
</g>
<g clip-path="url(#clip17)" clip-rule="nonzero">
<path style="fill:none;stroke-width:1.066978;stroke-linecap:butt;stroke-linejoin:round;stroke:rgb(92.156863%,92.156863%,92.156863%);stroke-opacity:1;stroke-miterlimit:10;" d="M 55.152344 32.5 L 346.601562 32.5 "/>
</g>
<g clip-path="url(#clip18)" clip-rule="nonzero">
<path style="fill:none;stroke-width:1.066978;stroke-linecap:butt;stroke-linejoin:round;stroke:rgb(92.156863%,92.156863%,92.156863%);stroke-opacity:1;stroke-miterlimit:10;" d="M 90.234375 126.925781 L 90.234375 23.246094 "/>
</g>
<g clip-path="url(#clip19)" clip-rule="nonzero">
<path style="fill:none;stroke-width:1.066978;stroke-linecap:butt;stroke-linejoin:round;stroke:rgb(92.156863%,92.156863%,92.156863%);stroke-opacity:1;stroke-miterlimit:10;" d="M 157.203125 126.925781 L 157.203125 23.246094 "/>
</g>
<g clip-path="url(#clip20)" clip-rule="nonzero">
<path style="fill:none;stroke-width:1.066978;stroke-linecap:butt;stroke-linejoin:round;stroke:rgb(92.156863%,92.156863%,92.156863%);stroke-opacity:1;stroke-miterlimit:10;" d="M 224.167969 126.925781 L 224.167969 23.246094 "/>
</g>
<g clip-path="url(#clip21)" clip-rule="nonzero">
<path style="fill:none;stroke-width:1.066978;stroke-linecap:butt;stroke-linejoin:round;stroke:rgb(92.156863%,92.156863%,92.156863%);stroke-opacity:1;stroke-miterlimit:10;" d="M 289.679688 126.925781 L 289.679688 23.246094 "/>
</g>
<path style="fill:none;stroke-width:1.066978;stroke-linecap:butt;stroke-linejoin:round;stroke:rgb(38.039216%,81.568627%,30.980392%);stroke-opacity:1;stroke-miterlimit:10;" d="M 68.398438 120.21875 L 69.125 120.367188 L 69.855469 118.273438 L 70.582031 117.96875 L 71.308594 118.308594 L 72.039062 118.414062 L 72.765625 118.683594 L 73.492188 119.324219 L 74.222656 118.933594 L 74.949219 118.113281 L 75.675781 117.132812 L 76.40625 116.523438 L 77.132812 114.492188 L 77.859375 116.183594 L 78.589844 116.953125 L 79.316406 113.890625 L 80.046875 114.40625 L 80.773438 112.621094 L 81.5 110.78125 L 82.230469 110.105469 L 82.957031 111.761719 L 83.683594 113.460938 L 84.414062 112.386719 L 85.140625 105.730469 L 85.867188 107.246094 L 86.597656 95.472656 L 87.324219 93.546875 L 88.050781 96.703125 L 88.78125 106.464844 L 89.507812 103.992188 L 90.234375 102.585938 L 90.964844 91.980469 L 91.691406 93.839844 L 92.417969 87.949219 L 93.148438 92.132812 L 93.875 103.265625 L 94.601562 100.242188 L 95.332031 92.339844 L 96.058594 95.492188 L 96.785156 88.023438 L 97.515625 91.230469 L 98.242188 76.457031 L 98.96875 84.460938 L 99.699219 94.71875 L 100.425781 91.765625 L 101.152344 80.449219 L 101.882812 87.921875 L 102.609375 91.328125 L 103.335938 84.898438 L 104.066406 91.269531 L 104.792969 93.980469 L 105.523438 92.949219 L 106.25 91.5625 L 106.976562 85 L 107.707031 85.730469 L 108.433594 94.269531 L 109.160156 95.621094 L 109.890625 94.609375 L 110.617188 93.964844 L 111.34375 92.4375 L 112.074219 95.277344 L 112.800781 93.378906 L 113.527344 100.96875 L 114.257812 108 L 114.984375 105.925781 L 115.710938 106.035156 L 116.441406 99.335938 L 117.167969 99.226562 L 117.894531 96.789062 L 118.625 103.585938 L 119.351562 109.785156 L 120.078125 104.773438 L 120.808594 97.960938 L 121.535156 103.5625 L 122.261719 103.828125 L 122.992188 103.214844 L 123.71875 110.910156 L 124.445312 114.203125 L 125.175781 110.734375 L 125.902344 109.90625 L 126.628906 108.589844 L 127.359375 108.203125 L 128.085938 109.320312 L 128.8125 113.320312 L 129.542969 115.460938 L 130.269531 114.21875 L 131 112.582031 L 131.726562 112.4375 L 132.453125 110.804688 L 133.183594 112.652344 L 133.910156 114.488281 L 134.636719 116.574219 L 135.367188 99.578125 L 136.09375 115.027344 L 136.820312 111.53125 L 137.550781 112.648438 L 138.277344 111.277344 L 139.003906 114.542969 L 139.734375 116.714844 L 140.460938 116.761719 L 141.1875 115.730469 L 141.917969 114.820312 L 142.644531 111.296875 L 143.371094 112.671875 L 144.101562 114.964844 L 144.828125 117.019531 L 145.554688 112.894531 L 146.285156 115.167969 L 147.011719 112.476562 L 147.738281 112.628906 L 148.46875 111.527344 L 149.195312 114.671875 L 149.921875 117.171875 L 150.652344 114.824219 L 151.378906 114.464844 L 152.105469 114.613281 L 152.835938 113.699219 L 153.5625 113.855469 L 154.289062 116.585938 L 155.019531 120.003906 L 155.746094 112.445312 L 156.476562 116.386719 L 157.203125 114.351562 L 157.929688 114.257812 L 158.660156 113.878906 L 159.386719 116.625 L 160.113281 117.980469 L 160.84375 115.480469 L 161.570312 114.492188 L 162.296875 112.324219 L 163.027344 113.515625 L 163.753906 122.210938 L 164.480469 105.554688 L 165.210938 117.628906 L 165.9375 114.0625 L 166.664062 113.589844 L 167.394531 112.175781 L 168.121094 111.898438 L 168.847656 110.117188 L 169.578125 114.621094 L 170.304688 117.105469 L 171.03125 111.261719 L 171.761719 115.800781 L 172.488281 105.589844 L 173.214844 111.179688 L 173.945312 108.839844 L 174.671875 115.078125 L 175.398438 112.113281 L 176.128906 109.359375 L 176.855469 109.90625 L 177.582031 109.65625 L 178.3125 105.488281 L 179.039062 115.242188 L 179.765625 107.664062 L 180.496094 108.304688 L 181.222656 108.34375 L 181.953125 108.984375 L 182.679688 103.5 L 183.40625 106.527344 L 184.136719 108.898438 L 184.863281 101.816406 L 185.589844 110.476562 L 186.320312 109.195312 L 187.046875 104.753906 L 187.773438 105.445312 L 188.503906 101.480469 L 189.230469 108.625 L 189.957031 91.992188 L 190.6875 108.269531 L 191.414062 99.90625 L 192.140625 98.511719 L 192.871094 95.042969 L 193.597656 95.042969 L 194.324219 97.066406 L 195.054688 102.515625 L 195.78125 103.28125 L 196.507812 96.628906 L 197.238281 97.164062 L 197.964844 122.210938 L 198.691406 70.347656 L 199.421875 103.441406 L 200.148438 100.195312 L 200.875 102.296875 L 201.605469 95.753906 L 202.332031 92.324219 L 203.058594 89.707031 L 203.789062 91.777344 L 204.515625 91.019531 L 205.242188 96.984375 L 205.972656 99.152344 L 206.699219 98.332031 L 207.429688 93.527344 L 208.15625 88.316406 L 208.882812 87.226562 L 209.613281 90.582031 L 210.339844 95.421875 L 211.066406 96.9375 L 211.796875 94.070312 L 212.523438 87.699219 L 213.25 82.894531 L 213.980469 83.335938 L 214.707031 87.277344 L 215.433594 97.089844 L 216.164062 89.273438 L 216.890625 91.007812 L 217.617188 88.167969 L 218.347656 82.898438 L 219.074219 122.210938 L 219.800781 71.25 L 220.53125 100.109375 L 221.257812 97.695312 L 221.984375 86.101562 L 222.714844 80.730469 L 223.441406 70.800781 L 224.167969 122.210938 L 224.898438 27.960938 L 225.625 90.503906 L 226.351562 88.550781 L 227.082031 76.066406 L 227.808594 69.03125 L 228.535156 62.953125 L 229.265625 63.808594 L 229.992188 76.023438 L 230.722656 85.390625 L 231.449219 87.59375 L 232.175781 77.667969 L 232.90625 80.375 L 233.632812 81.183594 L 234.359375 71.75 L 235.089844 85.972656 L 235.816406 89.039062 L 236.542969 98.28125 L 237.273438 92.859375 L 238 86.582031 L 238.726562 83.714844 L 239.457031 81.1875 L 240.183594 85.398438 L 240.910156 93.699219 L 241.640625 96.136719 L 242.367188 93.523438 L 243.09375 97.070312 L 243.824219 88.050781 L 244.550781 89.390625 L 245.277344 77.296875 L 246.007812 98.921875 L 246.734375 105.078125 L 247.460938 90.714844 L 248.191406 101.339844 L 248.917969 99.152344 L 249.644531 87.691406 L 250.375 99.824219 L 251.101562 102.402344 L 251.828125 105.054688 L 252.558594 101.210938 L 253.285156 99.671875 L 254.011719 96.71875 L 254.742188 99.433594 L 255.46875 99.738281 L 256.199219 105.957031 L 256.925781 111.402344 L 257.652344 103.382812 L 258.382812 100.257812 L 259.109375 106.910156 L 259.835938 102.226562 L 260.566406 100.441406 L 261.292969 107.066406 L 262.019531 109.796875 L 262.75 105.4375 L 263.476562 100.894531 L 264.203125 102.355469 L 264.933594 104.503906 L 265.660156 105.886719 L 266.386719 105.648438 L 267.117188 117.128906 L 267.84375 100.742188 L 268.570312 104.226562 L 269.300781 103.917969 L 270.027344 104.34375 L 270.753906 108.1875 L 271.484375 109.957031 L 272.210938 112.308594 L 272.9375 108.976562 L 273.667969 107.699219 L 274.394531 107.066406 L 275.121094 106.621094 L 275.851562 106.53125 L 276.578125 111.148438 L 277.304688 113.761719 L 278.035156 107.886719 L 278.761719 108.457031 L 279.488281 106.980469 L 280.21875 106.839844 L 280.945312 106.945312 L 281.675781 110.289062 L 282.402344 113.652344 L 283.128906 106.355469 L 283.859375 106.832031 L 284.585938 104.949219 L 285.3125 105.015625 L 286.042969 104.621094 L 286.769531 107.429688 L 287.496094 112.121094 L 288.226562 107.074219 L 288.953125 106.378906 L 289.679688 101.90625 L 290.410156 102.804688 L 291.136719 104.21875 L 291.863281 107.875 L 292.59375 111.804688 L 293.320312 105.597656 L 294.046875 104.613281 L 294.777344 98.472656 L 295.503906 100.917969 L 296.230469 101.558594 L 296.960938 105.703125 L 297.6875 117.386719 L 298.414062 95.09375 L 299.144531 101.960938 L 299.871094 101.992188 L 300.597656 100.394531 L 301.328125 103.304688 L 302.054688 101.773438 L 302.78125 109.542969 L 303.511719 105.332031 L 304.238281 105.550781 L 304.964844 102.222656 L 305.695312 105.871094 L 306.421875 100.050781 L 307.152344 108.242188 L 307.878906 111.707031 L 308.605469 106.449219 L 309.335938 106.726562 L 310.0625 105.269531 L 310.789062 106.34375 L 311.519531 106.007812 L 312.246094 110.726562 L 312.972656 113.015625 L 313.703125 111.203125 L 314.429688 109.070312 L 315.15625 108.742188 L 315.886719 109.757812 L 316.613281 110.320312 L 317.339844 112.550781 L 318.070312 115.347656 L 318.796875 112.453125 L 319.523438 112.691406 L 320.253906 110.058594 L 320.980469 111.476562 L 321.707031 112.285156 L 322.4375 114.789062 L 323.164062 116.304688 L 323.890625 113.824219 L 324.621094 113.804688 L 325.347656 113.5625 L 326.074219 115.121094 L 326.804688 112.027344 L 327.53125 116.023438 L 328.257812 117.410156 L 328.988281 116.609375 L 329.714844 115.253906 L 330.441406 115.21875 L 331.171875 115.21875 L 331.898438 122.210938 L 333.355469 122.210938 "/>
<g clip-path="url(#clip22)" clip-rule="nonzero">
<path style="fill:none;stroke-width:1.066978;stroke-linecap:butt;stroke-linejoin:round;stroke:rgb(0%,0%,0%);stroke-opacity:1;stroke-dasharray:1.066978,3.200935;stroke-miterlimit:10;" d="M 55.152344 122.210938 L 346.601562 122.210938 "/>
</g>
<g clip-path="url(#clip23)" clip-rule="nonzero">
<path style="fill:none;stroke-width:1.066978;stroke-linecap:round;stroke-linejoin:round;stroke:rgb(20%,20%,20%);stroke-opacity:1;stroke-miterlimit:10;" d="M 55.152344 126.925781 L 346.605469 126.925781 L 346.605469 23.246094 L 55.152344 23.246094 Z M 55.152344 126.925781 "/>
</g>
<g clip-path="url(#clip24)" clip-rule="nonzero">
<path style=" stroke:none;fill-rule:nonzero;fill:rgb(100%,100%,100%);fill-opacity:1;" d="M 55.152344 253.847656 L 346.605469 253.847656 L 346.605469 150.167969 L 55.152344 150.167969 Z M 55.152344 253.847656 "/>
</g>
<g clip-path="url(#clip25)" clip-rule="nonzero">
<path style="fill:none;stroke-width:0.533489;stroke-linecap:butt;stroke-linejoin:round;stroke:rgb(92.156863%,92.156863%,92.156863%);stroke-opacity:1;stroke-miterlimit:10;" d="M 55.152344 240.734375 L 346.601562 240.734375 "/>
</g>
<g clip-path="url(#clip26)" clip-rule="nonzero">
<path style="fill:none;stroke-width:0.533489;stroke-linecap:butt;stroke-linejoin:round;stroke:rgb(92.156863%,92.156863%,92.156863%);stroke-opacity:1;stroke-miterlimit:10;" d="M 55.152344 212.824219 L 346.601562 212.824219 "/>
</g>
<g clip-path="url(#clip27)" clip-rule="nonzero">
<path style="fill:none;stroke-width:0.533489;stroke-linecap:butt;stroke-linejoin:round;stroke:rgb(92.156863%,92.156863%,92.156863%);stroke-opacity:1;stroke-miterlimit:10;" d="M 55.152344 184.914062 L 346.601562 184.914062 "/>
</g>
<g clip-path="url(#clip28)" clip-rule="nonzero">
<path style="fill:none;stroke-width:0.533489;stroke-linecap:butt;stroke-linejoin:round;stroke:rgb(92.156863%,92.156863%,92.156863%);stroke-opacity:1;stroke-miterlimit:10;" d="M 55.152344 157.003906 L 346.601562 157.003906 "/>
</g>
<g clip-path="url(#clip29)" clip-rule="nonzero">
<path style="fill:none;stroke-width:0.533489;stroke-linecap:butt;stroke-linejoin:round;stroke:rgb(92.156863%,92.156863%,92.156863%);stroke-opacity:1;stroke-miterlimit:10;" d="M 68.398438 253.847656 L 68.398438 150.171875 "/>
</g>
<g clip-path="url(#clip30)" clip-rule="nonzero">
<path style="fill:none;stroke-width:0.533489;stroke-linecap:butt;stroke-linejoin:round;stroke:rgb(92.156863%,92.156863%,92.156863%);stroke-opacity:1;stroke-miterlimit:10;" d="M 112.800781 253.847656 L 112.800781 150.171875 "/>
</g>
<g clip-path="url(#clip31)" clip-rule="nonzero">
<path style="fill:none;stroke-width:0.533489;stroke-linecap:butt;stroke-linejoin:round;stroke:rgb(92.156863%,92.156863%,92.156863%);stroke-opacity:1;stroke-miterlimit:10;" d="M 135.367188 253.847656 L 135.367188 150.171875 "/>
</g>
<g clip-path="url(#clip32)" clip-rule="nonzero">
<path style="fill:none;stroke-width:0.533489;stroke-linecap:butt;stroke-linejoin:round;stroke:rgb(92.156863%,92.156863%,92.156863%);stroke-opacity:1;stroke-miterlimit:10;" d="M 179.765625 253.847656 L 179.765625 150.171875 "/>
</g>
<g clip-path="url(#clip33)" clip-rule="nonzero">
<path style="fill:none;stroke-width:0.533489;stroke-linecap:butt;stroke-linejoin:round;stroke:rgb(92.156863%,92.156863%,92.156863%);stroke-opacity:1;stroke-miterlimit:10;" d="M 201.605469 253.847656 L 201.605469 150.171875 "/>
</g>
<g clip-path="url(#clip34)" clip-rule="nonzero">
<path style="fill:none;stroke-width:0.533489;stroke-linecap:butt;stroke-linejoin:round;stroke:rgb(92.156863%,92.156863%,92.156863%);stroke-opacity:1;stroke-miterlimit:10;" d="M 246.734375 253.847656 L 246.734375 150.171875 "/>
</g>
<g clip-path="url(#clip35)" clip-rule="nonzero">
<path style="fill:none;stroke-width:0.533489;stroke-linecap:butt;stroke-linejoin:round;stroke:rgb(92.156863%,92.156863%,92.156863%);stroke-opacity:1;stroke-miterlimit:10;" d="M 267.117188 253.847656 L 267.117188 150.171875 "/>
</g>
<g clip-path="url(#clip36)" clip-rule="nonzero">
<path style="fill:none;stroke-width:0.533489;stroke-linecap:butt;stroke-linejoin:round;stroke:rgb(92.156863%,92.156863%,92.156863%);stroke-opacity:1;stroke-miterlimit:10;" d="M 311.519531 253.847656 L 311.519531 150.171875 "/>
</g>
<g clip-path="url(#clip37)" clip-rule="nonzero">
<path style="fill:none;stroke-width:0.533489;stroke-linecap:butt;stroke-linejoin:round;stroke:rgb(92.156863%,92.156863%,92.156863%);stroke-opacity:1;stroke-miterlimit:10;" d="M 334.082031 253.847656 L 334.082031 150.171875 "/>
</g>
<g clip-path="url(#clip38)" clip-rule="nonzero">
<path style="fill:none;stroke-width:1.066978;stroke-linecap:butt;stroke-linejoin:round;stroke:rgb(92.156863%,92.156863%,92.156863%);stroke-opacity:1;stroke-miterlimit:10;" d="M 55.152344 226.78125 L 346.601562 226.78125 "/>
</g>
<g clip-path="url(#clip39)" clip-rule="nonzero">
<path style="fill:none;stroke-width:1.066978;stroke-linecap:butt;stroke-linejoin:round;stroke:rgb(92.156863%,92.156863%,92.156863%);stroke-opacity:1;stroke-miterlimit:10;" d="M 55.152344 198.871094 L 346.601562 198.871094 "/>
</g>
<g clip-path="url(#clip40)" clip-rule="nonzero">
<path style="fill:none;stroke-width:1.066978;stroke-linecap:butt;stroke-linejoin:round;stroke:rgb(92.156863%,92.156863%,92.156863%);stroke-opacity:1;stroke-miterlimit:10;" d="M 55.152344 170.960938 L 346.601562 170.960938 "/>
</g>
<g clip-path="url(#clip41)" clip-rule="nonzero">
<path style="fill:none;stroke-width:1.066978;stroke-linecap:butt;stroke-linejoin:round;stroke:rgb(92.156863%,92.156863%,92.156863%);stroke-opacity:1;stroke-miterlimit:10;" d="M 90.234375 253.847656 L 90.234375 150.171875 "/>
</g>
<g clip-path="url(#clip42)" clip-rule="nonzero">
<path style="fill:none;stroke-width:1.066978;stroke-linecap:butt;stroke-linejoin:round;stroke:rgb(92.156863%,92.156863%,92.156863%);stroke-opacity:1;stroke-miterlimit:10;" d="M 157.203125 253.847656 L 157.203125 150.171875 "/>
</g>
<g clip-path="url(#clip43)" clip-rule="nonzero">
<path style="fill:none;stroke-width:1.066978;stroke-linecap:butt;stroke-linejoin:round;stroke:rgb(92.156863%,92.156863%,92.156863%);stroke-opacity:1;stroke-miterlimit:10;" d="M 224.167969 253.847656 L 224.167969 150.171875 "/>
</g>
<g clip-path="url(#clip44)" clip-rule="nonzero">
<path style="fill:none;stroke-width:1.066978;stroke-linecap:butt;stroke-linejoin:round;stroke:rgb(92.156863%,92.156863%,92.156863%);stroke-opacity:1;stroke-miterlimit:10;" d="M 289.679688 253.847656 L 289.679688 150.171875 "/>
</g>
<path style="fill:none;stroke-width:1.066978;stroke-linecap:butt;stroke-linejoin:round;stroke:rgb(80.392157%,4.313725%,73.72549%);stroke-opacity:1;stroke-miterlimit:10;" d="M 68.398438 196.15625 L 69.125 195.199219 L 69.855469 195.851562 L 70.582031 196.203125 L 71.308594 194.265625 L 72.039062 195.710938 L 72.765625 197.3125 L 73.492188 196.929688 L 74.222656 197.105469 L 74.949219 195.710938 L 75.675781 196.105469 L 76.40625 196.820312 L 77.132812 196.324219 L 77.859375 197.285156 L 78.589844 197.507812 L 79.316406 196.898438 L 80.046875 197.191406 L 80.773438 196.496094 L 81.5 196.53125 L 82.230469 196.890625 L 82.957031 197.078125 L 83.683594 197.167969 L 84.414062 196.871094 L 85.140625 197.882812 L 85.867188 197 L 86.597656 196.570312 L 87.324219 197.132812 L 88.050781 197.054688 L 88.78125 198.128906 L 89.507812 196.449219 L 90.234375 197.191406 L 90.964844 196.207031 L 91.691406 196.535156 L 92.417969 197.179688 L 93.148438 196.683594 L 93.875 197.519531 L 94.601562 197.066406 L 95.332031 197.757812 L 96.058594 197.3125 L 96.785156 196.65625 L 97.515625 196.816406 L 98.242188 196.773438 L 98.96875 197.269531 L 99.699219 196.332031 L 100.425781 196.566406 L 101.152344 197.339844 L 101.882812 198.328125 L 102.609375 197.257812 L 103.335938 198.914062 L 104.066406 197.53125 L 104.792969 196.910156 L 105.523438 196.398438 L 106.25 197.28125 L 106.976562 196.089844 L 107.707031 195.804688 L 108.433594 195.890625 L 109.160156 196.105469 L 109.890625 195.816406 L 110.617188 196.972656 L 111.34375 196.59375 L 112.074219 194.695312 L 112.800781 196.609375 L 113.527344 196.910156 L 114.257812 197.152344 L 114.984375 196.675781 L 115.710938 196.636719 L 116.441406 196.507812 L 117.167969 196.597656 L 117.894531 196.675781 L 118.625 196.828125 L 119.351562 197.164062 L 120.078125 196.195312 L 120.808594 195.972656 L 121.535156 194.996094 L 122.261719 195.414062 L 122.992188 197.105469 L 123.71875 198.648438 L 124.445312 196.859375 L 125.175781 196.742188 L 125.902344 196.804688 L 126.628906 198.082031 L 127.359375 197.023438 L 128.085938 195.773438 L 128.8125 197.859375 L 129.542969 197.3125 L 130.269531 196.945312 L 131 196.988281 L 131.726562 196.917969 L 132.453125 196.609375 L 133.183594 196.777344 L 133.910156 197.105469 L 134.636719 196.625 L 135.367188 196.753906 L 136.09375 196.9375 L 136.820312 196.492188 L 137.550781 196.011719 L 138.277344 196.816406 L 139.003906 196.972656 L 139.734375 196.828125 L 140.460938 196.910156 L 141.1875 196.660156 L 141.917969 196.242188 L 142.644531 195.910156 L 143.371094 196.195312 L 144.101562 197.023438 L 144.828125 196.703125 L 145.554688 196.125 L 146.285156 196.335938 L 147.011719 195.335938 L 147.738281 195.855469 L 148.46875 196.101562 L 149.195312 196.117188 L 149.921875 196.195312 L 150.652344 196.027344 L 151.378906 196.125 L 152.105469 197.167969 L 152.835938 193.5 L 153.5625 194.316406 L 154.289062 194.609375 L 155.019531 195.179688 L 155.746094 195.6875 L 156.476562 194.332031 L 157.203125 194.867188 L 157.929688 194.210938 L 158.660156 193.144531 L 159.386719 194.992188 L 160.113281 195.488281 L 160.84375 194.726562 L 161.570312 195.382812 L 162.296875 190.972656 L 163.027344 193.34375 L 163.753906 193.5 L 164.480469 194.199219 L 165.210938 195.335938 L 165.9375 192.222656 L 166.664062 192.460938 L 167.394531 192.378906 L 168.121094 193.042969 L 168.847656 192.796875 L 169.578125 192.773438 L 170.304688 188.785156 L 171.03125 191.804688 L 171.761719 191.507812 L 172.488281 190.867188 L 173.214844 191.367188 L 173.945312 186.652344 L 174.671875 190.976562 L 175.398438 189.621094 L 176.128906 187.699219 L 176.855469 187.179688 L 177.582031 187.847656 L 178.3125 185.652344 L 179.039062 189.089844 L 179.765625 186.742188 L 180.496094 187.996094 L 181.222656 185.214844 L 181.953125 181.832031 L 182.679688 184.464844 L 183.40625 183.457031 L 184.136719 178.289062 L 184.863281 184.871094 L 185.589844 183.675781 L 186.320312 174.023438 L 187.046875 177.582031 L 187.773438 175.867188 L 188.503906 176.414062 L 189.230469 171.78125 L 189.957031 170.664062 L 190.6875 182.503906 L 191.414062 172.394531 L 192.140625 172.394531 L 192.871094 171.585938 L 193.597656 175.246094 L 194.324219 170.160156 L 195.054688 174.140625 L 195.78125 174.972656 L 196.507812 170.984375 L 197.238281 172.484375 L 197.964844 171.589844 L 198.691406 171.902344 L 199.421875 178 L 200.148438 169.886719 L 200.875 176.324219 L 201.605469 168.335938 L 202.332031 170.582031 L 203.058594 167.785156 L 203.789062 163.183594 L 204.515625 165.753906 L 205.242188 161.980469 L 205.972656 174.082031 L 206.699219 164.394531 L 207.429688 170.3125 L 208.15625 166.394531 L 208.882812 174.878906 L 209.613281 160.945312 L 210.339844 172.675781 L 211.066406 167.96875 L 211.796875 173.113281 L 212.523438 163.570312 L 213.25 172.042969 L 213.980469 173.328125 L 214.707031 172.277344 L 215.433594 167.097656 L 216.164062 177.183594 L 216.890625 169.546875 L 217.617188 168.578125 L 218.347656 169.300781 L 219.074219 168.554688 L 219.800781 172.886719 L 220.53125 181.894531 L 221.257812 178.417969 L 221.984375 174.21875 L 222.714844 168.449219 L 223.441406 166.875 L 224.167969 165.289062 L 224.898438 164.492188 L 225.625 175.15625 L 226.351562 188.839844 L 227.082031 158.941406 L 227.808594 167.292969 L 228.535156 161.449219 L 229.265625 165.761719 L 229.992188 162.261719 L 230.722656 167.734375 L 231.449219 169.097656 L 232.175781 173.265625 L 232.90625 154.882812 L 233.632812 159.28125 L 234.359375 163.640625 L 235.089844 165.058594 L 235.816406 170.222656 L 236.542969 177.363281 L 237.273438 173.035156 L 238 168.515625 L 238.726562 170.6875 L 239.457031 175.425781 L 240.183594 158.976562 L 240.910156 169.441406 L 241.640625 175.742188 L 242.367188 171.910156 L 243.09375 172.320312 L 243.824219 172.378906 L 244.550781 165.457031 L 245.277344 169.429688 L 246.007812 174.945312 L 246.734375 179.238281 L 247.460938 181.285156 L 248.191406 185.96875 L 248.917969 180.511719 L 249.644531 175.269531 L 250.375 173.691406 L 251.101562 174.6875 L 251.828125 184.574219 L 252.558594 178.910156 L 253.285156 174.476562 L 254.011719 178.460938 L 254.742188 178.039062 L 255.46875 177.898438 L 256.199219 186.769531 L 256.925781 190.804688 L 257.652344 178.589844 L 258.382812 175.933594 L 259.109375 180.578125 L 259.835938 181.863281 L 260.566406 182.8125 L 261.292969 187.539062 L 262.019531 183.777344 L 262.75 181.242188 L 263.476562 181.460938 L 264.203125 178.902344 L 264.933594 177.269531 L 265.660156 175.792969 L 266.386719 185.535156 L 267.117188 181.34375 L 267.84375 180.511719 L 268.570312 178.265625 L 269.300781 181.046875 L 270.027344 178.210938 L 270.753906 178.105469 L 271.484375 184.808594 L 272.210938 185.992188 L 272.9375 175.839844 L 273.667969 177.796875 L 274.394531 177.574219 L 275.121094 176.269531 L 275.851562 177.289062 L 276.578125 180.371094 L 277.304688 183.105469 L 278.035156 178.144531 L 278.761719 174.707031 L 279.488281 173.96875 L 280.21875 173.464844 L 280.945312 171.46875 L 281.675781 180.796875 L 282.402344 181.28125 L 283.128906 172.058594 L 283.859375 176.007812 L 284.585938 176.84375 L 285.3125 167.617188 L 286.042969 172.847656 L 286.769531 173.699219 L 287.496094 178.65625 L 288.226562 171.679688 L 288.953125 178.375 L 289.679688 167.578125 L 290.410156 173.589844 L 291.136719 174.058594 L 291.863281 177.664062 L 292.59375 183.066406 L 293.320312 178.160156 L 294.046875 175.1875 L 294.777344 174.6875 L 295.503906 175.464844 L 296.230469 178.78125 L 296.960938 179.964844 L 297.6875 185.09375 L 298.414062 176.75 L 299.144531 178.980469 L 299.871094 176.777344 L 300.597656 174.644531 L 301.328125 176.976562 L 302.054688 181.292969 L 302.78125 186.683594 L 303.511719 183.023438 L 304.238281 179.472656 L 304.964844 180.839844 L 305.695312 183.050781 L 306.421875 183.335938 L 307.152344 189.414062 L 307.878906 249.136719 L 308.605469 187.015625 L 309.335938 187.074219 L 310.0625 186.355469 L 310.789062 188.5 L 311.519531 190 L 312.246094 192.183594 L 312.972656 193.382812 L 313.703125 193.265625 L 314.429688 184.757812 L 315.15625 190.984375 L 315.886719 188.609375 L 316.613281 200.105469 L 317.339844 196.976562 L 318.070312 198.023438 L 318.796875 195.738281 L 319.523438 196.15625 L 320.253906 196.480469 L 320.980469 197.066406 L 321.707031 195.265625 L 322.4375 197.367188 L 323.164062 196.933594 L 323.890625 195.265625 L 324.621094 196.390625 L 325.347656 195.738281 L 326.074219 195.230469 L 326.804688 196.761719 L 327.53125 197.191406 L 328.257812 198.300781 L 328.988281 196.699219 L 329.714844 196.664062 L 330.441406 196.671875 L 331.171875 197.386719 L 331.898438 197.445312 L 332.628906 197.496094 L 333.355469 197.769531 "/>
<g clip-path="url(#clip45)" clip-rule="nonzero">
<path style="fill:none;stroke-width:1.066978;stroke-linecap:butt;stroke-linejoin:round;stroke:rgb(0%,0%,0%);stroke-opacity:1;stroke-dasharray:1.066978,3.200935;stroke-miterlimit:10;" d="M 55.152344 198.871094 L 346.601562 198.871094 "/>
</g>
<g clip-path="url(#clip46)" clip-rule="nonzero">
<path style="fill:none;stroke-width:1.066978;stroke-linecap:round;stroke-linejoin:round;stroke:rgb(20%,20%,20%);stroke-opacity:1;stroke-miterlimit:10;" d="M 55.152344 253.847656 L 346.605469 253.847656 L 346.605469 150.167969 L 55.152344 150.167969 Z M 55.152344 253.847656 "/>
</g>
<g clip-path="url(#clip47)" clip-rule="nonzero">
<path style="fill-rule:nonzero;fill:rgb(85.098039%,85.098039%,85.098039%);fill-opacity:1;stroke-width:1.066978;stroke-linecap:round;stroke-linejoin:round;stroke:rgb(20%,20%,20%);stroke-opacity:1;stroke-miterlimit:10;" d="M 55.152344 150.171875 L 346.605469 150.171875 L 346.605469 132.40625 L 55.152344 132.40625 Z M 55.152344 150.171875 "/>
</g>
<g style="fill:rgb(10.196078%,10.196078%,10.196078%);fill-opacity:1;">
  <use xlink:href="#glyph0-1" x="196.875" y="143.957031"/>
  <use xlink:href="#glyph0-2" x="202.875" y="143.957031"/>
</g>
<g clip-path="url(#clip48)" clip-rule="nonzero">
<path style="fill-rule:nonzero;fill:rgb(85.098039%,85.098039%,85.098039%);fill-opacity:1;stroke-width:1.066978;stroke-linecap:round;stroke-linejoin:round;stroke:rgb(20%,20%,20%);stroke-opacity:1;stroke-miterlimit:10;" d="M 55.152344 23.246094 L 346.605469 23.246094 L 346.605469 5.480469 L 55.152344 5.480469 Z M 55.152344 23.246094 "/>
</g>
<g style="fill:rgb(10.196078%,10.196078%,10.196078%);fill-opacity:1;">
  <use xlink:href="#glyph0-3" x="197.875" y="17.03125"/>
</g>
<path style="fill:none;stroke-width:1.066978;stroke-linecap:butt;stroke-linejoin:round;stroke:rgb(20%,20%,20%);stroke-opacity:1;stroke-miterlimit:10;" d="M 90.234375 256.589844 L 90.234375 253.847656 "/>
<path style="fill:none;stroke-width:1.066978;stroke-linecap:butt;stroke-linejoin:round;stroke:rgb(20%,20%,20%);stroke-opacity:1;stroke-miterlimit:10;" d="M 157.203125 256.589844 L 157.203125 253.847656 "/>
<path style="fill:none;stroke-width:1.066978;stroke-linecap:butt;stroke-linejoin:round;stroke:rgb(20%,20%,20%);stroke-opacity:1;stroke-miterlimit:10;" d="M 224.167969 256.589844 L 224.167969 253.847656 "/>
<path style="fill:none;stroke-width:1.066978;stroke-linecap:butt;stroke-linejoin:round;stroke:rgb(20%,20%,20%);stroke-opacity:1;stroke-miterlimit:10;" d="M 289.679688 256.589844 L 289.679688 253.847656 "/>
<g style="fill:rgb(30.196078%,30.196078%,30.196078%);fill-opacity:1;">
  <use xlink:href="#glyph0-4" x="71.234375" y="264.949219"/>
  <use xlink:href="#glyph0-5" x="74.234375" y="264.949219"/>
  <use xlink:href="#glyph0-6" x="80.234375" y="264.949219"/>
  <use xlink:href="#glyph0-7" x="82.234375" y="264.949219"/>
  <use xlink:href="#glyph0-8" x="85.234375" y="264.949219"/>
  <use xlink:href="#glyph0-9" x="91.234375" y="264.949219"/>
  <use xlink:href="#glyph0-8" x="97.234375" y="264.949219"/>
  <use xlink:href="#glyph0-9" x="103.234375" y="264.949219"/>
</g>
<g style="fill:rgb(30.196078%,30.196078%,30.196078%);fill-opacity:1;">
  <use xlink:href="#glyph0-10" x="136.203125" y="264.949219"/>
  <use xlink:href="#glyph0-11" x="143.203125" y="264.949219"/>
  <use xlink:href="#glyph0-12" x="148.203125" y="264.949219"/>
  <use xlink:href="#glyph0-7" x="151.203125" y="264.949219"/>
  <use xlink:href="#glyph0-8" x="154.203125" y="264.949219"/>
  <use xlink:href="#glyph0-9" x="160.203125" y="264.949219"/>
  <use xlink:href="#glyph0-8" x="166.203125" y="264.949219"/>
  <use xlink:href="#glyph0-9" x="172.203125" y="264.949219"/>
</g>
<g style="fill:rgb(30.196078%,30.196078%,30.196078%);fill-opacity:1;">
  <use xlink:href="#glyph0-4" x="203.667969" y="264.949219"/>
  <use xlink:href="#glyph0-13" x="206.667969" y="264.949219"/>
  <use xlink:href="#glyph0-1" x="211.667969" y="264.949219"/>
  <use xlink:href="#glyph0-7" x="217.667969" y="264.949219"/>
  <use xlink:href="#glyph0-8" x="220.667969" y="264.949219"/>
  <use xlink:href="#glyph0-9" x="226.667969" y="264.949219"/>
  <use xlink:href="#glyph0-8" x="232.667969" y="264.949219"/>
  <use xlink:href="#glyph0-14" x="238.667969" y="264.949219"/>
</g>
<g style="fill:rgb(30.196078%,30.196078%,30.196078%);fill-opacity:1;">
  <use xlink:href="#glyph0-15" x="268.179688" y="264.949219"/>
  <use xlink:href="#glyph0-16" x="274.179688" y="264.949219"/>
  <use xlink:href="#glyph0-17" x="280.179688" y="264.949219"/>
  <use xlink:href="#glyph0-7" x="284.179688" y="264.949219"/>
  <use xlink:href="#glyph0-8" x="287.179688" y="264.949219"/>
  <use xlink:href="#glyph0-9" x="293.179688" y="264.949219"/>
  <use xlink:href="#glyph0-8" x="299.179688" y="264.949219"/>
  <use xlink:href="#glyph0-14" x="305.179688" y="264.949219"/>
</g>
<g style="fill:rgb(30.196078%,30.196078%,30.196078%);fill-opacity:1;">
  <use xlink:href="#glyph0-9" x="44.21875" y="124.878906"/>
</g>
<g style="fill:rgb(30.196078%,30.196078%,30.196078%);fill-opacity:1;">
  <use xlink:href="#glyph0-14" x="20.21875" y="94.976562"/>
  <use xlink:href="#glyph0-9" x="26.21875" y="94.976562"/>
  <use xlink:href="#glyph0-9" x="32.21875" y="94.976562"/>
  <use xlink:href="#glyph0-9" x="38.21875" y="94.976562"/>
  <use xlink:href="#glyph0-9" x="44.21875" y="94.976562"/>
</g>
<g style="fill:rgb(30.196078%,30.196078%,30.196078%);fill-opacity:1;">
  <use xlink:href="#glyph0-8" x="20.21875" y="65.070312"/>
  <use xlink:href="#glyph0-9" x="26.21875" y="65.070312"/>
  <use xlink:href="#glyph0-9" x="32.21875" y="65.070312"/>
  <use xlink:href="#glyph0-9" x="38.21875" y="65.070312"/>
  <use xlink:href="#glyph0-9" x="44.21875" y="65.070312"/>
</g>
<g style="fill:rgb(30.196078%,30.196078%,30.196078%);fill-opacity:1;">
  <use xlink:href="#glyph0-18" x="20.21875" y="35.167969"/>
  <use xlink:href="#glyph0-9" x="26.21875" y="35.167969"/>
  <use xlink:href="#glyph0-9" x="32.21875" y="35.167969"/>
  <use xlink:href="#glyph0-9" x="38.21875" y="35.167969"/>
  <use xlink:href="#glyph0-9" x="44.21875" y="35.167969"/>
</g>
<path style="fill:none;stroke-width:1.066978;stroke-linecap:butt;stroke-linejoin:round;stroke:rgb(20%,20%,20%);stroke-opacity:1;stroke-miterlimit:10;" d="M 52.410156 122.210938 L 55.152344 122.210938 "/>
<path style="fill:none;stroke-width:1.066978;stroke-linecap:butt;stroke-linejoin:round;stroke:rgb(20%,20%,20%);stroke-opacity:1;stroke-miterlimit:10;" d="M 52.410156 92.308594 L 55.152344 92.308594 "/>
<path style="fill:none;stroke-width:1.066978;stroke-linecap:butt;stroke-linejoin:round;stroke:rgb(20%,20%,20%);stroke-opacity:1;stroke-miterlimit:10;" d="M 52.410156 62.402344 L 55.152344 62.402344 "/>
<path style="fill:none;stroke-width:1.066978;stroke-linecap:butt;stroke-linejoin:round;stroke:rgb(20%,20%,20%);stroke-opacity:1;stroke-miterlimit:10;" d="M 52.410156 32.5 L 55.152344 32.5 "/>
<g style="fill:rgb(30.196078%,30.196078%,30.196078%);fill-opacity:1;">
  <use xlink:href="#glyph0-19" x="23.21875" y="229.449219"/>
  <use xlink:href="#glyph0-20" x="26.21875" y="229.449219"/>
  <use xlink:href="#glyph0-9" x="32.21875" y="229.449219"/>
  <use xlink:href="#glyph0-9" x="38.21875" y="229.449219"/>
  <use xlink:href="#glyph0-9" x="44.21875" y="229.449219"/>
</g>
<g style="fill:rgb(30.196078%,30.196078%,30.196078%);fill-opacity:1;">
  <use xlink:href="#glyph0-9" x="44.21875" y="201.539062"/>
</g>
<g style="fill:rgb(30.196078%,30.196078%,30.196078%);fill-opacity:1;">
  <use xlink:href="#glyph0-20" x="26.21875" y="173.628906"/>
  <use xlink:href="#glyph0-9" x="32.21875" y="173.628906"/>
  <use xlink:href="#glyph0-9" x="38.21875" y="173.628906"/>
  <use xlink:href="#glyph0-9" x="44.21875" y="173.628906"/>
</g>
<path style="fill:none;stroke-width:1.066978;stroke-linecap:butt;stroke-linejoin:round;stroke:rgb(20%,20%,20%);stroke-opacity:1;stroke-miterlimit:10;" d="M 52.410156 226.78125 L 55.152344 226.78125 "/>
<path style="fill:none;stroke-width:1.066978;stroke-linecap:butt;stroke-linejoin:round;stroke:rgb(20%,20%,20%);stroke-opacity:1;stroke-miterlimit:10;" d="M 52.410156 198.871094 L 55.152344 198.871094 "/>
<path style="fill:none;stroke-width:1.066978;stroke-linecap:butt;stroke-linejoin:round;stroke:rgb(20%,20%,20%);stroke-opacity:1;stroke-miterlimit:10;" d="M 52.410156 170.960938 L 55.152344 170.960938 "/>
<g style="fill:rgb(0%,0%,0%);fill-opacity:1;">
  <use xlink:href="#glyph1-1" x="187.875" y="278.730469"/>
  <use xlink:href="#glyph1-2" x="195.875" y="278.730469"/>
  <use xlink:href="#glyph1-3" x="202.875" y="278.730469"/>
  <use xlink:href="#glyph1-4" x="206.875" y="278.730469"/>
</g>
<g style="fill:rgb(0%,0%,0%);fill-opacity:1;">
  <use xlink:href="#glyph2-1" x="13.691406" y="212.046875"/>
  <use xlink:href="#glyph2-2" x="13.691406" y="205.046875"/>
  <use xlink:href="#glyph2-3" x="13.691406" y="198.046875"/>
  <use xlink:href="#glyph2-4" x="13.691406" y="191.046875"/>
  <use xlink:href="#glyph2-5" x="13.691406" y="184.046875"/>
  <use xlink:href="#glyph2-6" x="13.691406" y="179.046875"/>
  <use xlink:href="#glyph2-2" x="13.691406" y="175.046875"/>
  <use xlink:href="#glyph2-7" x="13.691406" y="168.046875"/>
  <use xlink:href="#glyph2-8" x="13.691406" y="161.046875"/>
  <use xlink:href="#glyph2-9" x="13.691406" y="158.046875"/>
  <use xlink:href="#glyph2-10" x="13.691406" y="150.046875"/>
  <use xlink:href="#glyph2-11" x="13.691406" y="142.046875"/>
  <use xlink:href="#glyph2-12" x="13.691406" y="134.046875"/>
  <use xlink:href="#glyph2-13" x="13.691406" y="131.046875"/>
  <use xlink:href="#glyph2-14" x="13.691406" y="123.046875"/>
  <use xlink:href="#glyph2-15" x="13.691406" y="119.046875"/>
  <use xlink:href="#glyph2-16" x="13.691406" y="112.046875"/>
  <use xlink:href="#glyph2-8" x="13.691406" y="105.046875"/>
  <use xlink:href="#glyph2-17" x="13.691406" y="102.046875"/>
  <use xlink:href="#glyph2-4" x="13.691406" y="96.046875"/>
  <use xlink:href="#glyph2-18" x="13.691406" y="89.046875"/>
  <use xlink:href="#glyph2-19" x="13.691406" y="82.046875"/>
  <use xlink:href="#glyph2-6" x="13.691406" y="75.046875"/>
  <use xlink:href="#glyph2-20" x="13.691406" y="71.046875"/>
</g>
<path style=" stroke:none;fill-rule:nonzero;fill:rgb(100%,100%,100%);fill-opacity:1;" d="M 357.5625 170.046875 L 426.519531 170.046875 L 426.519531 107.046875 L 357.5625 107.046875 Z M 357.5625 170.046875 "/>
<g style="fill:rgb(0%,0%,0%);fill-opacity:1;">
  <use xlink:href="#glyph1-5" x="363.042969" y="122.238281"/>
  <use xlink:href="#glyph1-4" x="370.042969" y="122.238281"/>
  <use xlink:href="#glyph1-6" x="377.042969" y="122.238281"/>
  <use xlink:href="#glyph1-7" x="384.042969" y="122.238281"/>
  <use xlink:href="#glyph1-8" x="390.042969" y="122.238281"/>
  <use xlink:href="#glyph1-2" x="397.042969" y="122.238281"/>
  <use xlink:href="#glyph1-9" x="404.042969" y="122.238281"/>
  <use xlink:href="#glyph1-10" x="407.042969" y="122.238281"/>
  <use xlink:href="#glyph1-4" x="414.042969" y="122.238281"/>
</g>
<path style=" stroke:none;fill-rule:nonzero;fill:rgb(100%,100%,100%);fill-opacity:1;" d="M 363.042969 147.289062 L 380.324219 147.289062 L 380.324219 130.007812 L 363.042969 130.007812 Z M 363.042969 147.289062 "/>
<path style="fill:none;stroke-width:1.066978;stroke-linecap:butt;stroke-linejoin:round;stroke:rgb(38.039216%,81.568627%,30.980392%);stroke-opacity:1;stroke-miterlimit:10;" d="M 364.769531 138.648438 L 378.59375 138.648438 "/>
<path style=" stroke:none;fill-rule:nonzero;fill:rgb(100%,100%,100%);fill-opacity:1;" d="M 363.042969 164.566406 L 380.324219 164.566406 L 380.324219 147.285156 L 363.042969 147.285156 Z M 363.042969 164.566406 "/>
<path style="fill:none;stroke-width:1.066978;stroke-linecap:butt;stroke-linejoin:round;stroke:rgb(80.392157%,4.313725%,73.72549%);stroke-opacity:1;stroke-miterlimit:10;" d="M 364.769531 155.925781 L 378.59375 155.925781 "/>
<g style="fill:rgb(0%,0%,0%);fill-opacity:1;">
  <use xlink:href="#glyph0-3" x="385.800781" y="141.316406"/>
</g>
<g style="fill:rgb(0%,0%,0%);fill-opacity:1;">
  <use xlink:href="#glyph0-1" x="385.800781" y="158.59375"/>
  <use xlink:href="#glyph0-2" x="391.800781" y="158.59375"/>
</g>
</g>
</svg>
